<svg xmlns="http://www.w3.org/2000/svg" xmlns:xlink="http://www.w3.org/1999/xlink" viewBox="0 0 25 20.74"><defs><style>.cls-1{fill:url(#linear-gradient);}.cls-2{fill:url(#linear-gradient-2);}.cls-3{isolation:isolate;}.cls-4{mask:url(#mask);}.cls-5,.cls-6,.cls-7{fill:#29abe2;mix-blend-mode:multiply;}.cls-5{opacity:0.15;}.cls-6{opacity:0.2;}.cls-7{opacity:0.3;}.cls-8{mask:url(#mask-2);}.cls-9{opacity:0.7;}</style><linearGradient id="linear-gradient" y1="12.5" x2="25" y2="12.5" gradientUnits="userSpaceOnUse"><stop offset="0.34" stop-color="#fff"/><stop offset="0.45" stop-color="#c1c1c1"/><stop offset="0.56" stop-color="#878787"/><stop offset="0.66" stop-color="#575757"/><stop offset="0.76" stop-color="#313131"/><stop offset="0.86" stop-color="#161616"/><stop offset="0.94" stop-color="#060606"/><stop offset="1"/></linearGradient><linearGradient id="linear-gradient-2" y1="8.49" y2="8.49" gradientTransform="translate(25 21.05) rotate(180)" xlink:href="#linear-gradient"/><mask id="mask" x="0" y="-3.3" width="25" height="25" maskUnits="userSpaceOnUse"><g transform="translate(0 -3.3)"><rect class="cls-1" width="25" height="25"/></g></mask><mask id="mask-2" x="0" y="-6.34" width="25" height="31.21" maskUnits="userSpaceOnUse"><g transform="translate(0 -3.3)"><rect class="cls-2" y="-3.04" width="25" height="31.21"/></g></mask></defs><title>6754</title><g class="cls-3"><g id="Layer_1" data-name="Layer 1"><g class="cls-4"><path class="cls-5" d="M24.35,9.06A7.66,7.66,0,0,1,23,10.45c-2.6,2.09-6.15.9-9.76,2.86C9.94,15.13,7.56,19.34,0,16.9V17c7.58,2.49,10-1.8,13.23-3.62,3.63-2,7.22-.67,9.82-2.7A10.27,10.27,0,0,0,25,8.48V8.11C24.79,8.44,24.57,8.76,24.35,9.06Z" transform="translate(0 -3.3)"/><path class="cls-5" d="M25,8c-.24.37-.48.73-.73,1-2.3,3.11-4.67,2.32-9,3.4-1.77.36-3.37,1.65-5.12,3a19.17,19.17,0,0,1,4-2.48c3.68-1.39,7.18-.62,9.21-2.77A9.11,9.11,0,0,0,25,8.37Z" transform="translate(0 -3.3)"/><path class="cls-5" d="M.4,16.72c5,1.34,7.7.32,9.75-1.29C8.09,16.9,5.33,17.82.4,16.72Z" transform="translate(0 -3.3)"/><path class="cls-5" d="M25,7.82c-.28.43-.56.84-.85,1.21a8.58,8.58,0,0,1-1.44,1.34c-2.63,1.93-6.16.91-9.69,2.89a35.2,35.2,0,0,0-3.65,2.57c1.78-1.06,3.15-2.35,4.76-2.93,3.66-1.4,7.14-.7,9.18-2.82A9,9,0,0,0,25,8.18Z" transform="translate(0 -3.3)"/><path class="cls-5" d="M0,16.58v.06c4.55,1.4,7.26.75,9.37-.81C7.33,17.09,4.6,17.54,0,16.58Z" transform="translate(0 -3.3)"/><path class="cls-5" d="M24,9.06a7.31,7.31,0,0,1-1.43,1.26c-2.64,1.87-6.15.93-9.64,2.92C9.74,15.1,7.39,18.93,0,16.68v.08c7.41,2.31,9.78-1.6,13-3.46,3.51-2,7.05-1,9.7-2.77A9.62,9.62,0,0,0,25,8.11v-.4A12.07,12.07,0,0,1,24,9.06Z" transform="translate(0 -3.3)"/><path class="cls-5" d="M23.91,9a7.35,7.35,0,0,1-1.45,1.25c-2.65,1.8-6.15.93-9.61,2.93C9.67,15.09,7.34,18.8,0,16.61v.07c7.36,2.25,9.72-1.53,12.89-3.41,3.47-2,7-1,9.67-2.79A10,10,0,0,0,25,8V7.56A12.46,12.46,0,0,1,23.91,9Z" transform="translate(0 -3.3)"/><path class="cls-5" d="M23.83,9a7.79,7.79,0,0,1-1.49,1.24c-2.67,1.74-6.15.95-9.57,3C9.61,15.07,7.28,18.66,0,16.53v.08c7.3,2.18,9.65-1.48,12.81-3.36,3.43-2,7-1.14,9.62-2.82A10.09,10.09,0,0,0,25,7.83V7.41A14.73,14.73,0,0,1,23.83,9Z" transform="translate(0 -3.3)"/><path class="cls-5" d="M23.73,9a7.89,7.89,0,0,1-1.52,1.23c-2.68,1.68-6.14,1-9.52,3C9.54,15.06,7.23,18.53,0,16.46v.08c7.25,2.12,9.58-1.42,12.73-3.31,3.39-2,6.89-1.23,9.58-2.85A10.31,10.31,0,0,0,25,7.71V7.28A13.65,13.65,0,0,1,23.73,9Z" transform="translate(0 -3.3)"/><path class="cls-5" d="M23.58,9a7.34,7.34,0,0,1-1.49,1.15c-2.69,1.62-6.14,1-9.48,3C9.47,15,7.18,18.4,0,16.39v.08c7.19,2.05,9.52-1.37,12.65-3.27,3.36-2,6.84-1.3,9.53-2.87A9.86,9.86,0,0,0,25,7.62V7.2A12.57,12.57,0,0,1,23.58,9Z" transform="translate(0 -3.3)"/><path class="cls-5" d="M23.48,9A7.55,7.55,0,0,1,22,10.1c-2.7,1.56-6.12,1-9.43,3C9.41,15,7.12,18.26,0,16.32v.08c7.14,2,9.45-1.32,12.57-3.23,3.32-2,6.78-1.38,9.49-2.88A10.14,10.14,0,0,0,25,7.5V7.07A12,12,0,0,1,23.48,9Z" transform="translate(0 -3.3)"/><path class="cls-5" d="M23.37,8.94a7.46,7.46,0,0,1-1.53,1.11c-2.71,1.52-6.11,1-9.39,3C9.35,15,7.07,18.13,0,16.26v.07c7.09,1.93,9.39-1.27,12.48-3.18,3.3-2,6.73-1.46,9.46-2.92A10.13,10.13,0,0,0,25,7.37V7A12.31,12.31,0,0,1,23.37,8.94Z" transform="translate(0 -3.3)"/><path class="cls-5" d="M1,16.28a13.42,13.42,0,0,0,5.66-.15A15.71,15.71,0,0,1,1,16.28Z" transform="translate(0 -3.3)"/><path class="cls-5" d="M16.7,11.34a9.06,9.06,0,0,0-3.36,1.4A18.51,18.51,0,0,1,16.7,11.34Z" transform="translate(0 -3.3)"/><path class="cls-5" d="M6.64,16.13c2.94-.68,4.8-2.22,6.7-3.39-.32.17-.64.35-.94.54C10.53,14.2,9,15.49,6.64,16.13Z" transform="translate(0 -3.3)"/><path class="cls-5" d="M25,6.83a12.65,12.65,0,0,1-1.73,2.08A7.76,7.76,0,0,1,21.72,10c-1.26.34-3.11.72-5,1.34a7.29,7.29,0,0,1,1.83-.08C21.27,10.47,23.25,9.9,25,7.5Z" transform="translate(0 -3.3)"/><path class="cls-5" d="M1,16.22A13.56,13.56,0,0,0,6.65,16,15.91,15.91,0,0,1,1,16.22Z" transform="translate(0 -3.3)"/><path class="cls-5" d="M16.64,11.28a9.39,9.39,0,0,0-3.31,1.38A19.8,19.8,0,0,1,16.64,11.28Z" transform="translate(0 -3.3)"/><path class="cls-5" d="M25,6.78a11.57,11.57,0,0,1-1.88,2.16,8.15,8.15,0,0,1-1.53,1c-1.26.31-3.07.7-4.95,1.32a7.1,7.1,0,0,1,1.81-.1c2.77-.83,4.77-1.39,6.55-3.84Z" transform="translate(0 -3.3)"/><path class="cls-5" d="M6.65,16c2.93-.67,4.79-2.21,6.68-3.38-.34.18-.69.38-1,.59C10.48,14.16,9,15.42,6.65,16Z" transform="translate(0 -3.3)"/><path class="cls-5" d="M23,8.91a8.64,8.64,0,0,1-1.54,1c-2.28.53-6.28,1.37-9.23,3.31C9.09,14.78,6.86,17.32,0,16v.06c6.89,1.38,9.12-1.21,12.28-2.77,3-1.94,7-2.73,9.28-3.2a9.55,9.55,0,0,0,3.44-3V6.67A11.26,11.26,0,0,1,23,8.91Z" transform="translate(0 -3.3)"/><path class="cls-5" d="M22.93,8.85a7.74,7.74,0,0,1-1.59,1c-2.3.49-6.25,1.4-9.19,3.33C9,14.75,6.81,17.21,0,15.93V16c6.83,1.33,9.06-1.18,12.19-2.74,3-1.93,6.92-2.78,9.25-3.21A10.19,10.19,0,0,0,25,7V6.55A11.81,11.81,0,0,1,22.93,8.85Z" transform="translate(0 -3.3)"/><path class="cls-5" d="M22.83,8.82a8.57,8.57,0,0,1-1.61,1,27,27,0,0,0-9.14,3.34C9,14.72,6.75,17.1,0,15.86v.07c6.78,1.29,9-1.15,12.11-2.71A25.88,25.88,0,0,1,21.31,10,10.06,10.06,0,0,0,25,6.85V6.44A12.44,12.44,0,0,1,22.83,8.82Z" transform="translate(0 -3.3)"/><path class="cls-5" d="M22.72,8.79a8.3,8.3,0,0,1-1.63,1A26.5,26.5,0,0,0,12,13.12C8.93,14.69,6.7,17,0,15.8v.06c6.72,1.25,9-1.11,12-2.68a25.26,25.26,0,0,1,9.15-3.25A10.16,10.16,0,0,0,25,6.73V6.32A12,12,0,0,1,22.72,8.79Z" transform="translate(0 -3.3)"/><path class="cls-5" d="M0,15.64H0c4.1.86,6.46.64,8.46-.54C6.46,16.09,4,16.21,0,15.64Z" transform="translate(0 -3.3)"/><path class="cls-5" d="M25,6.28a10.9,10.9,0,0,1-2.41,2.53c-2.85,2.1-6.21,1.72-9.75,3.57-1.46.69-2.8,1.85-4.38,2.73,3.27-1.86,6.17-4,9.61-4.24,2.89-.93,5-1.45,6.93-4.11Z" transform="translate(0 -3.3)"/><path class="cls-5" d="M0,15.58H0c4.08.83,6.42.62,8.42-.55C6.42,16,4,16.12,0,15.58Z" transform="translate(0 -3.3)"/><path class="cls-5" d="M25,6.14a11.18,11.18,0,0,1-2.54,2.62c-2.85,2.05-6.19,1.73-9.7,3.59C11.32,13,10,14.17,8.42,15c3.27-1.83,6.15-4,9.57-4.26,2.92-1,5.06-1.47,7-4.18Z" transform="translate(0 -3.3)"/><path class="cls-5" d="M0,15.46v.11c5.66,1,8,0,10.32-1.78C8,15.1,5.28,15.69,0,15.46Z" transform="translate(0 -3.3)"/><path class="cls-5" d="M20,10.17l1-.68c-2.12,1.15-4.73,1-7.64,2.49a17.68,17.68,0,0,0-3,1.81A34.45,34.45,0,0,1,20,10.17Z" transform="translate(0 -3.3)"/><path class="cls-5" d="M22.25,8.71a10.5,10.5,0,0,1-1.65.88A24.35,24.35,0,0,0,11.68,13c-3,1.55-5.19,3.58-11.68,2.58v.06c6.51,1,8.73-1,11.71-2.58a23.13,23.13,0,0,1,9-3.31A10.24,10.24,0,0,0,25,6.33V6A11.23,11.23,0,0,1,22.25,8.71Z" transform="translate(0 -3.3)"/><path class="cls-5" d="M22.14,8.68a10.11,10.11,0,0,1-1.66.87A23.68,23.68,0,0,0,11.6,13C8.66,14.51,6.43,16.47,0,15.51v.06c6.45,1,8.68-1,11.63-2.55a23,23,0,0,1,8.93-3.33A10.43,10.43,0,0,0,25,6.23V5.85A11.21,11.21,0,0,1,22.14,8.68Z" transform="translate(0 -3.3)"/><path class="cls-5" d="M22,8.65a10.69,10.69,0,0,1-1.69.85,23.66,23.66,0,0,0-8.83,3.42C8.6,14.47,6.38,16.36,0,15.45v.06c6.4,1,8.62-1,11.56-2.52a22.41,22.41,0,0,1,8.87-3.35A10.37,10.37,0,0,0,25,6.11V5.74A11.23,11.23,0,0,1,22,8.65Z" transform="translate(0 -3.3)"/><path class="cls-5" d="M21.93,8.61a10.79,10.79,0,0,1-1.7.85,23.24,23.24,0,0,0-8.78,3.43C8.55,14.43,6.33,16.25,0,15.4v0c6.35.91,8.57-1,11.48-2.5A22.24,22.24,0,0,1,20.31,9.6,10.61,10.61,0,0,0,25,6V5.65A11.16,11.16,0,0,1,21.93,8.61Z" transform="translate(0 -3.3)"/><path class="cls-5" d="M21.77,8.62a14.83,14.83,0,0,1-1.66.8,22.77,22.77,0,0,0-8.74,3.44C8.49,14.39,6.28,16.15,0,15.34v.05c6.3.86,8.52-.94,11.4-2.47a22.09,22.09,0,0,1,8.78-3.37A10.43,10.43,0,0,0,25,6V5.62A10.65,10.65,0,0,1,21.77,8.62Z" transform="translate(0 -3.3)"/><path class="cls-5" d="M0,15.1v.12c5.84.77,8-.24,10.43-2C8,14.48,5.35,15.05,0,15.1Z" transform="translate(0 -3.3)"/><path class="cls-5" d="M20.15,9.54,20.92,9C18.67,10.2,16,10.15,13,11.74a17.9,17.9,0,0,0-2.55,1.49A60.37,60.37,0,0,1,20.15,9.54Z" transform="translate(0 -3.3)"/><path class="cls-5" d="M24.68,5.91c-1.07,1-2.33,2-3.76,3.05l.76-.39A10.87,10.87,0,0,0,24.68,5.91Z" transform="translate(0 -3.3)"/><path class="cls-5" d="M21.56,8.54a13.87,13.87,0,0,1-1.7.79c-2.51.22-5.93,1.76-8.64,3.46C8.39,14.3,6.17,16,0,15.23v0c6.19.76,8.41-.92,11.25-2.43,2.72-1.7,6.16-3.21,8.68-3.39A10.75,10.75,0,0,0,25,5.76V5.41A10.58,10.58,0,0,1,21.56,8.54Z" transform="translate(0 -3.3)"/><path class="cls-5" d="M21.46,8.51a12.81,12.81,0,0,1-1.73.77c-2.51.22-5.89,1.8-8.59,3.47-2.81,1.51-5,3.1-11.14,2.42v.05c6.14.72,8.35-.9,11.17-2.41,2.71-1.68,6.1-3.23,8.64-3.39a14,14,0,0,0,1.72-.75,10.31,10.31,0,0,0,3.47-3V5.32A10.75,10.75,0,0,1,21.46,8.51Z" transform="translate(0 -3.3)"/><path class="cls-5" d="M21.35,8.47a12.4,12.4,0,0,1-1.74.77c-2.53.21-5.86,1.82-8.55,3.48-2.78,1.5-5,3-11.06,2.4v0c6.09.68,8.3-.89,11.09-2.38,2.7-1.66,6.05-3.25,8.59-3.41A11.08,11.08,0,0,0,25,5.57V5.23A10.62,10.62,0,0,1,21.35,8.47Z" transform="translate(0 -3.3)"/><path class="cls-5" d="M21.24,8.44a13.79,13.79,0,0,1-1.75.76c-2.54.2-5.83,1.85-8.5,3.48s-5,3-11,2.38v0c6,.62,8.25-.88,11-2.37,2.67-1.64,6-3.26,8.54-3.41A11.24,11.24,0,0,0,25,5.49V5.13A10.76,10.76,0,0,1,21.24,8.44Z" transform="translate(0 -3.3)"/><path class="cls-5" d="M21.13,8.41a14.54,14.54,0,0,1-1.76.75c-2.55.2-5.81,1.88-8.46,3.49S6,15.54,0,15v0c6,.58,8.19-.87,10.94-2.35s5.94-3.26,8.49-3.42a13.36,13.36,0,0,0,1.77-.72A10.51,10.51,0,0,0,25,5.39V5A10.88,10.88,0,0,1,21.13,8.41Z" transform="translate(0 -3.3)"/><path class="cls-5" d="M0,14.77v.12c5.92.54,8-.42,10.46-2.16C8,13.93,5.35,14.45,0,14.77Z" transform="translate(0 -3.3)"/><path class="cls-5" d="M25,5c-1.16,1.06-2.54,2.16-4.13,3.47L21,8.39A10.74,10.74,0,0,0,25,5Z" transform="translate(0 -3.3)"/><path class="cls-5" d="M20.24,9l.63-.5c-2.43,1.32-5.17,1.36-8.32,3.08a17.86,17.86,0,0,0-2.09,1.19C14,11.11,17.3,10.06,20.24,9Z" transform="translate(0 -3.3)"/><path class="cls-5" d="M0,14.71v.09c5.83.34,8.12-.47,10.78-2.28C8.24,13.76,5.59,14.37,0,14.71Z" transform="translate(0 -3.3)"/><path class="cls-5" d="M20.17,8.88l.56-.46a16.44,16.44,0,0,1-1.61.66,23.62,23.62,0,0,0-8.34,3.44C14.13,11,17.33,9.94,20.17,8.88Z" transform="translate(0 -3.3)"/><path class="cls-5" d="M25,4.89C23.81,6,22.37,7.08,20.73,8.42l.14-.06A10.71,10.71,0,0,0,25,4.93Z" transform="translate(0 -3.3)"/><path class="cls-5" d="M20.76,8.33A16.16,16.16,0,0,1,19,9c-2.56.19-5.71,2-8.31,3.5S5.82,15.25,0,14.84v.05c5.83.44,8-.85,10.72-2.3s5.77-3.28,8.34-3.44a11.58,11.58,0,0,0,5.94-4V4.82A10.77,10.77,0,0,1,20.76,8.33Z" transform="translate(0 -3.3)"/><path class="cls-5" d="M20.66,8.29A16.5,16.5,0,0,1,18.88,9c-2.56.2-5.67,2-8.26,3.5S5.77,15.15,0,14.79v0c5.79.4,8-.83,10.65-2.27s5.72-3.29,8.29-3.45a18.73,18.73,0,0,0,1.78-.67A10.64,10.64,0,0,0,25,5.07V4.73A10.77,10.77,0,0,1,20.66,8.29Z" transform="translate(0 -3.3)"/><path class="cls-5" d="M20.55,8.26a18.2,18.2,0,0,1-1.8.7c-2.56.2-5.63,2-8.2,3.5S5.72,15.05,0,14.73v0c5.73.35,7.93-.83,10.57-2.26s5.67-3.29,8.25-3.44A12,12,0,0,0,25,5V4.64A11,11,0,0,1,20.55,8.26Z" transform="translate(0 -3.3)"/><path class="cls-5" d="M20.44,8.23c-.58.25-1.18.48-1.81.69-2.56.2-5.6,2-8.16,3.51S5.67,15,0,14.68v0c5.68.32,7.88-.82,10.5-2.24S16.12,9.19,18.7,9A12.17,12.17,0,0,0,25,4.91V4.55A11.08,11.08,0,0,1,20.44,8.23Z" transform="translate(0 -3.3)"/><path class="cls-5" d="M20.33,8.19c-.58.26-1.19.49-1.82.7-2.56.2-5.57,2-8.11,3.5S5.62,14.86,0,14.63v0c5.63.27,7.82-.82,10.43-2.23S16,9.16,18.58,9A12.29,12.29,0,0,0,25,4.83V4.47A11.11,11.11,0,0,1,20.33,8.19Z" transform="translate(0 -3.3)"/><path class="cls-5" d="M0,14.37v0c6.29-.12,8.65-1,11.35-2.58C8.62,13.08,6,13.81,0,14.37Z" transform="translate(0 -3.3)"/><path class="cls-5" d="M25,4.36c-1.19,1-2.62,2.15-4.24,3.52A11,11,0,0,0,25,4.4Z" transform="translate(0 -3.3)"/><path class="cls-5" d="M20.2,8.34c.19-.15.38-.3.56-.46-.2.1-.38.21-.59.3-2.41-.15-5.71,2.14-8.82,3.64C14.52,10.53,17.52,9.44,20.2,8.34Z" transform="translate(0 -3.3)"/><path class="cls-5" d="M20.11,8.12c-.58.25-1.2.48-1.84.7-2.56.21-5.5,2.07-8,3.49S5.52,14.67,0,14.52v0c5.53.19,7.72-.82,10.28-2.19s5.47-3.28,8-3.45A12.65,12.65,0,0,0,25,4.65V4.3A11.32,11.32,0,0,1,20.11,8.12Z" transform="translate(0 -3.3)"/><path class="cls-5" d="M20,8.09c-.6.25-1.21.47-1.86.69-2.56.22-5.47,2.09-8,3.49S5.47,14.58,0,14.46v0c5.48.14,7.67-.82,10.21-2.18s5.42-3.27,8-3.45A12.88,12.88,0,0,0,25,4.57V4.22A11.5,11.5,0,0,1,20,8.09Z" transform="translate(0 -3.3)"/><path class="cls-5" d="M19.9,8.06c-.6.25-1.22.47-1.87.69-2.56.22-5.43,2.11-7.92,3.48S5.42,14.48,0,14.41v0c5.44.11,7.61-.81,10.14-2.16s5.37-3.26,8-3.45A13.08,13.08,0,0,0,25,4.48V4.14A11.72,11.72,0,0,1,19.9,8.06Z" transform="translate(0 -3.3)"/><path class="cls-5" d="M25,4a11.49,11.49,0,0,1-3.2,3A10.68,10.68,0,0,0,25,4.48Z" transform="translate(0 -3.3)"/><path class="cls-5" d="M0,14.21H0c4.48,0,6.68-.18,8.82-1.39C6.72,13.82,4.41,13.94,0,14.21Z" transform="translate(0 -3.3)"/><path class="cls-5" d="M17.63,9c.59-.3,1.18-.57,1.74-.83-.48.19-.94.38-1.46.55-3,.51-6.18,2.47-9.09,4.12C11.88,11.4,14.65,9.72,17.63,9Z" transform="translate(0 -3.3)"/><path class="cls-5" d="M19.68,8c-.6.25-1.23.47-1.88.69-2.56.24-5.37,2.14-7.83,3.48S5.32,14.3,0,14.3v0c5.34,0,7.51-.81,10-2.13S15.28,9,17.85,8.77c.66-.21,1.29-.43,1.89-.67A11.71,11.71,0,0,0,25,4.29V4A11.79,11.79,0,0,1,19.68,8Z" transform="translate(0 -3.3)"/><path class="cls-5" d="M0,14.06v.12c5.8-.1,7.92-.72,10.65-2.53C8.06,12.8,5.45,13.23,0,14.06Z" transform="translate(0 -3.3)"/><path class="cls-5" d="M25,3.91c-1.18,1-2.62,2.13-4.21,3.49A11.31,11.31,0,0,0,25,3.94Z" transform="translate(0 -3.3)"/><path class="cls-5" d="M20.26,7.85l.53-.45c-.42.2-.82.41-1.26.58-.59.24-1.21.45-1.85.67a22.57,22.57,0,0,0-7,3C14.16,10.3,17.36,9.11,20.26,7.85Z" transform="translate(0 -3.3)"/><path class="cls-5" d="M19.42,7.94c-.6.24-1.22.46-1.86.67-2.55.26-5.3,2.17-7.73,3.47s-4.6,2-9.83,2.12v0c5.24,0,7.41-.81,9.85-2.1s5.2-3.2,7.76-3.43A13.71,13.71,0,0,0,25,4.24V3.89A11.84,11.84,0,0,1,19.42,7.94Z" transform="translate(0 -3.3)"/><path class="cls-5" d="M0,14.17H0a23.25,23.25,0,0,0,4.78-.37A32.79,32.79,0,0,1,0,14.17Z" transform="translate(0 -3.3)"/><path class="cls-5" d="M25,3.82a12.11,12.11,0,0,1-5.68,4.1c-.61.23-1.23.44-1.88.66-4.9.87-6.85,4.1-12.66,5.23a15.39,15.39,0,0,0,5-1.72c2.42-1.28,5.16-3.18,7.72-3.42.64-.21,1.27-.42,1.87-.64A11.91,11.91,0,0,0,25,4.11Z" transform="translate(0 -3.3)"/><path class="cls-5" d="M19.21,7.88c-.61.23-1.24.45-1.88.67-6,1.12-7.57,5.67-17.33,5.59v0c9.78.13,11.33-4.48,17.38-5.53.65-.21,1.28-.42,1.88-.65A12.11,12.11,0,0,0,25,4v-.3A12.18,12.18,0,0,1,19.21,7.88Z" transform="translate(0 -3.3)"/><path class="cls-5" d="M25,3.6a11.52,11.52,0,0,1-3.08,2.86A10.6,10.6,0,0,0,25,4Z" transform="translate(0 -3.3)"/><path class="cls-5" d="M0,13.9v0c4.47-.23,6.61-.32,8.76-1.53C6.66,13.37,4.39,13.44,0,13.9Z" transform="translate(0 -3.3)"/><path class="cls-5" d="M17.36,8.63l1.44-.69c-.52.2-1,.39-1.59.58-2.87.55-5.73,2.4-8.45,3.87C11.76,11.06,14.44,9.41,17.36,8.63Z" transform="translate(0 -3.3)"/><path class="cls-5" d="M5.84,13.41a42.17,42.17,0,0,1-5.69.46A26.92,26.92,0,0,0,5.84,13.41Z" transform="translate(0 -3.3)"/><path class="cls-5" d="M25,3.59a12.48,12.48,0,0,1-6,4.23c-.62.23-1.25.45-1.91.67-.38.13-.77.25-1.15.39a11.16,11.16,0,0,1,1.2-.31C20.27,7.67,23,6.39,25,3.89Z" transform="translate(0 -3.3)"/><path class="cls-5" d="M5.84,13.41c3.07-.66,5.13-2.49,7.76-3.64A47.35,47.35,0,0,0,9.24,12,15.82,15.82,0,0,1,5.84,13.41Z" transform="translate(0 -3.3)"/><path class="cls-5" d="M5.78,13.35a46.79,46.79,0,0,1-5.63.46A28.56,28.56,0,0,0,5.78,13.35Z" transform="translate(0 -3.3)"/><path class="cls-5" d="M25,3.47A12.28,12.28,0,0,1,18.85,7.8c-.62.24-1.25.45-1.87.66l-1.21.41A10.05,10.05,0,0,1,17,8.54c2.78-.94,5.51-1.65,8-4.8Z" transform="translate(0 -3.3)"/><path class="cls-5" d="M5.78,13.35c3.08-.65,5.13-2.47,7.76-3.61-1.5.64-2.91,1.43-4.39,2.24A15.82,15.82,0,0,1,5.78,13.35Z" transform="translate(0 -3.3)"/><path class="cls-5" d="M5.73,13.28c3.07-.63,5.12-2.43,7.74-3.58C12,10.35,10.54,11.14,9.06,12A15.13,15.13,0,0,1,5.73,13.28Z" transform="translate(0 -3.3)"/><path class="cls-5" d="M5.73,13.28a49.86,49.86,0,0,1-5.58.48A29.46,29.46,0,0,0,5.73,13.28Z" transform="translate(0 -3.3)"/><path class="cls-5" d="M25,3.39a12.43,12.43,0,0,1-6.25,4.38c-.63.24-1.26.45-1.89.66l-1.25.43a10.44,10.44,0,0,1,1.3-.35c2.81-1,5.58-1.66,8.09-4.84Z" transform="translate(0 -3.3)"/><path class="cls-5" d="M5.67,13.22c-1.44.32-3.09.26-5.53.49A32.58,32.58,0,0,0,5.67,13.22Z" transform="translate(0 -3.3)"/><path class="cls-5" d="M5.67,13.22c3.06-.63,5.11-2.4,7.71-3.55-1.51.66-2.92,1.45-4.41,2.25A15.13,15.13,0,0,1,5.67,13.22Z" transform="translate(0 -3.3)"/><path class="cls-5" d="M25,3.3a12.53,12.53,0,0,1-6.36,4.44l-1.89.67c-.43.13-.87.28-1.3.44a12.27,12.27,0,0,1,1.34-.37c2.86-1,5.67-1.67,8.21-4.89Z" transform="translate(0 -3.3)"/><path class="cls-6" d="M23.94,7.71a8.78,8.78,0,0,1-1.36,1.57c-2.57,2.3-6.08,1.5-9.64,3.24S7.43,17,0,15.4v0c7.45,1.61,9.48-1.1,13-2.87s7.11-.88,9.69-3.14A11.76,11.76,0,0,0,25,6.14V5.73A16.59,16.59,0,0,1,23.94,7.71Z" transform="translate(0 -3.3)"/><path class="cls-6" d="M25,5.74a15.41,15.41,0,0,1-1.11,2c-2.17,3.34-4.67,2.82-8.87,4a18.21,18.21,0,0,0-5.1,2.5,27.9,27.9,0,0,1,4-2c3.62-1.31,7-.92,9-3.15a10.6,10.6,0,0,0,2-2.93Z" transform="translate(0 -3.3)"/><path class="cls-6" d="M.61,15.21c4.8.88,7.18.37,9.31-1C7.79,15.46,5.38,15.91.61,15.21Z" transform="translate(0 -3.3)"/><path class="cls-6" d="M12.16,13C10,14,8.2,15.22,5,15.52,8.42,15.27,10.21,14.06,12.16,13Z" transform="translate(0 -3.3)"/><path class="cls-6" d="M25,5.77a15,15,0,0,1-1.19,2.11A7.74,7.74,0,0,1,22.4,9.37c-1.69,1-5.24,1.54-8.2,2.74,3.48-1.2,6.76-.91,8.74-3A10.41,10.41,0,0,0,25,6.13Z" transform="translate(0 -3.3)"/><path class="cls-6" d="M.7,15.38a20.08,20.08,0,0,0,3.74.18A24.19,24.19,0,0,1,.7,15.38Z" transform="translate(0 -3.3)"/><path class="cls-6" d="M23.71,8a7.79,7.79,0,0,1-1.4,1.41c-2,1.09-6.44,1.64-9.57,3.32C9.35,14.06,7.14,16.37,0,15.25v.05c7.17,1.17,9.38-1.2,12.78-2.51,3.14-1.68,7.62-2.16,9.62-3.21A10.57,10.57,0,0,0,25,6.2V5.82A14.06,14.06,0,0,1,23.71,8Z" transform="translate(0 -3.3)"/><path class="cls-6" d="M23.64,8.09a7.05,7.05,0,0,1-1.42,1.37c-2,1-6.44,1.61-9.55,3.27C9.31,14.05,7.1,16.32,0,15.22v0c7.12,1.15,9.33-1.18,12.71-2.48,3.12-1.67,7.55-2.2,9.59-3.18A10.23,10.23,0,0,0,25,6.22V5.84A14.11,14.11,0,0,1,23.64,8.09Z" transform="translate(0 -3.3)"/><path class="cls-6" d="M23.6,8.13A7.24,7.24,0,0,1,22.13,9.5c-2.08.93-6.44,1.57-9.53,3.22C9.25,14,7.05,16.26,0,15.19v.05c7.07,1.12,9.28-1.15,12.63-2.46,3.1-1.66,7.5-2.24,9.58-3.13A10.2,10.2,0,0,0,25,6.25v-.4A14.36,14.36,0,0,1,23.6,8.13Z" transform="translate(0 -3.3)"/><path class="cls-6" d="M23.53,8.21A7.12,7.12,0,0,1,22,9.54c-2.12.84-6.44,1.53-9.52,3.18C9.21,14,7,16.21,0,15.16v0c7,1.1,9.23-1.12,12.56-2.43,3.08-1.65,7.44-2.28,9.56-3.08A10.11,10.11,0,0,0,25,6.28v-.4A13.92,13.92,0,0,1,23.53,8.21Z" transform="translate(0 -3.3)"/><path class="cls-6" d="M23.42,8.34A7.07,7.07,0,0,1,22,9.57c-2.16.77-6.44,1.51-9.5,3.14C9.16,14,7,16.15,0,15.13v0c7,1.08,9.18-1.09,12.49-2.41,3.07-1.63,7.38-2.31,9.54-3a9.5,9.5,0,0,0,3-3.38V6A13,13,0,0,1,23.42,8.34Z" transform="translate(0 -3.3)"/><path class="cls-6" d="M23.36,8.4a7.05,7.05,0,0,1-1.5,1.21c-2.19.69-6.44,1.47-9.48,3.09C9.11,14,6.91,16.1,0,15.1v0c6.93,1.05,9.13-1.07,12.41-2.39,3.05-1.62,7.33-2.34,9.53-3A9.57,9.57,0,0,0,25,6.36V6A12.46,12.46,0,0,1,23.36,8.4Z" transform="translate(0 -3.3)"/><path class="cls-6" d="M23.29,8.46a7,7,0,0,1-1.53,1.18c-2.22.62-6.43,1.45-9.45,3C9.06,14,6.86,16,0,15.07v0c6.89,1,9.08-1,12.34-2.36,3-1.62,7.27-2.39,9.5-3A9.15,9.15,0,0,0,25,6.39V6A11.86,11.86,0,0,1,23.29,8.46Z" transform="translate(0 -3.3)"/><path class="cls-6" d="M5.65,15.12c3.5-.48,5.58-1.92,7.76-3-.4.18-.8.37-1.17.57C10.13,13.55,8.46,14.69,5.65,15.12Z" transform="translate(0 -3.3)"/><path class="cls-6" d="M25,6a11.53,11.53,0,0,1-1.78,2.5,7,7,0,0,1-1.55,1.14c-1.35.33-3.37.78-5.42,1.42a9,9,0,0,1,2.14-.22c2.84-.71,4.9-1.3,6.61-4.26Z" transform="translate(0 -3.3)"/><path class="cls-6" d="M25,6.13a10.45,10.45,0,0,1-1.9,2.51A7,7,0,0,1,21.58,9.7c-1.36.29-3.36.73-5.38,1.36a9.51,9.51,0,0,1,2.14-.22c2.85-.72,4.93-1.28,6.66-4.25Z" transform="translate(0 -3.3)"/><path class="cls-6" d="M5.65,15.08c3.47-.48,5.54-1.91,7.71-3q-.62.27-1.2.57C10.08,13.54,8.42,14.66,5.65,15.08Z" transform="translate(0 -3.3)"/><path class="cls-6" d="M23,8.7a6.25,6.25,0,0,1-1.54,1,36.26,36.26,0,0,0-9.39,2.95C8.92,14,6.73,15.87,0,15v0c6.74.93,8.94-1,12.13-2.3a34,34,0,0,1,9.42-2.86A8.49,8.49,0,0,0,25,6.48V6.15A10.2,10.2,0,0,1,23,8.7Z" transform="translate(0 -3.3)"/><path class="cls-6" d="M23,8.73a7.25,7.25,0,0,1-1.59,1A33.54,33.54,0,0,0,12,12.67C8.87,14,6.68,15.82,0,15v0c6.7.92,8.89-1,12.06-2.27a32,32,0,0,1,9.4-2.84A8.36,8.36,0,0,0,25,6.54V6.2A10.23,10.23,0,0,1,23,8.73Z" transform="translate(0 -3.3)"/><path class="cls-6" d="M22.91,8.78a7.24,7.24,0,0,1-1.62,1A31.65,31.65,0,0,0,12,12.66C8.82,14,6.63,15.76,0,14.92v0c6.65.89,8.84-.93,12-2.25A30.4,30.4,0,0,1,21.36,9.9,8.27,8.27,0,0,0,25,6.57V6.23A10.12,10.12,0,0,1,22.91,8.78Z" transform="translate(0 -3.3)"/><path class="cls-6" d="M22.84,8.83a7,7,0,0,1-1.64,1,30.14,30.14,0,0,0-9.32,2.87C8.77,14,6.59,15.7,0,14.89v0c6.6.86,8.79-.91,11.91-2.22a28.49,28.49,0,0,1,9.36-2.79A8.26,8.26,0,0,0,25,6.59V6.25A9.73,9.73,0,0,1,22.84,8.83Z" transform="translate(0 -3.3)"/><path class="cls-6" d="M12.78,12.26a24,24,0,0,1,3.52-1.32,14.34,14.34,0,0,0-3.93,1.48Z" transform="translate(0 -3.3)"/><path class="cls-6" d="M0,14.83v.06c6.54.77,9.51-1,12.37-2.47C9.15,13.69,6.82,15.53,0,14.83Z" transform="translate(0 -3.3)"/><path class="cls-6" d="M25,6.32a9,9,0,0,1-2.26,2.61,61.47,61.47,0,0,1-6.44,2,10.66,10.66,0,0,1,1.76-.19c2.93-.68,5.11-1.09,6.94-4Z" transform="translate(0 -3.3)"/><path class="cls-6" d="M12.71,12.25a25.06,25.06,0,0,1,3.51-1.33,14.64,14.64,0,0,0-3.86,1.47Z" transform="translate(0 -3.3)"/><path class="cls-6" d="M25,6.71V6.34A9.17,9.17,0,0,1,22.65,9c-1.49.64-4,1.2-6.43,1.95a10.76,10.76,0,0,1,1.79-.2C21,10,23.15,9.65,25,6.71Z" transform="translate(0 -3.3)"/><path class="cls-6" d="M0,14.8v.06c6.54.75,9.5-1,12.36-2.47C9.13,13.66,6.82,15.48,0,14.8Z" transform="translate(0 -3.3)"/><path class="cls-6" d="M0,14.61v.09c5.64.56,7.8.16,10.24-1.43C7.82,14.46,5.3,14.57,0,14.61Z" transform="translate(0 -3.3)"/><path class="cls-6" d="M20.05,10.29c.39-.18.76-.37,1.12-.56-2.18,1-4.92.71-7.86,2a19.94,19.94,0,0,0-3.07,1.53A33.61,33.61,0,0,1,20.05,10.29Z" transform="translate(0 -3.3)"/><path class="cls-6" d="M22.49,9.07a7.83,7.83,0,0,1-1.68.8,25.08,25.08,0,0,0-9.2,2.76C8.58,13.94,6.4,15.47,0,14.77v0c6.42.74,8.6-.82,11.64-2.13A24.17,24.17,0,0,1,20.88,10,7.79,7.79,0,0,0,25,6.74V6.38A8.43,8.43,0,0,1,22.49,9.07Z" transform="translate(0 -3.3)"/><path class="cls-6" d="M22.42,9.11a7.94,7.94,0,0,1-1.71.77,24.2,24.2,0,0,0-9.17,2.75c-3,1.3-5.19,2.79-11.54,2.11v0c6.37.71,8.55-.8,11.57-2.11A23.42,23.42,0,0,1,20.78,10,7.82,7.82,0,0,0,25,6.77V6.4A8.55,8.55,0,0,1,22.42,9.11Z" transform="translate(0 -3.3)"/><path class="cls-6" d="M22.34,9.15a8.46,8.46,0,0,1-1.72.75c-2.57,0-6.31,1.28-9.15,2.72S6.31,15.35,0,14.71v0c6.32.68,8.51-.79,11.5-2.08,2.84-1.45,6.6-2.7,9.18-2.66A7.81,7.81,0,0,0,25,6.79V6.43A8.24,8.24,0,0,1,22.34,9.15Z" transform="translate(0 -3.3)"/><path class="cls-6" d="M22.27,9.19a8.6,8.6,0,0,1-1.75.72c-2.6,0-6.3,1.28-9.12,2.7S6.26,15.3,0,14.68v0c6.27.67,8.46-.76,11.43-2.05S18,9.94,20.59,10A7.79,7.79,0,0,0,25,6.81V6.46A8.14,8.14,0,0,1,22.27,9.19Z" transform="translate(0 -3.3)"/><path class="cls-6" d="M22.14,9.26a9.42,9.42,0,0,1-1.71.66c-2.62-.07-6.29,1.28-9.1,2.69S6.21,15.24,0,14.64v0c6.23.63,8.41-.74,11.36-2s6.5-2.74,9.13-2.63A7.59,7.59,0,0,0,25,6.9V6.54A7.67,7.67,0,0,1,22.14,9.26Z" transform="translate(0 -3.3)"/><path class="cls-6" d="M0,14.42v.09c5.79.46,7.89,0,10.39-1.57C7.92,14.09,5.38,14.2,0,14.42Z" transform="translate(0 -3.3)"/><path class="cls-6" d="M20.43,10.08l.84-.45c-2.32,1-5.19.66-8.26,2a20.26,20.26,0,0,0-2.62,1.27A41.38,41.38,0,0,1,20.43,10.08Z" transform="translate(0 -3.3)"/><path class="cls-6" d="M24.81,6.9a13.62,13.62,0,0,1-3.54,2.73c.27-.11.54-.22.81-.35A7.87,7.87,0,0,0,24.81,6.9Z" transform="translate(0 -3.3)"/><path class="cls-6" d="M22,9.32a9.16,9.16,0,0,1-1.76.62c-2.66-.13-6.25,1.28-9,2.65s-5.08,2.54-11.2,2v0c6.14.58,8.32-.7,11.23-2s6.39-2.76,9.06-2.6A7.74,7.74,0,0,0,25,6.94V6.67A7.78,7.78,0,0,1,22,9.32Z" transform="translate(0 -3.3)"/><path class="cls-6" d="M21.92,9.35a9.41,9.41,0,0,1-1.79.6c-2.68-.15-6.23,1.27-9,2.64S6.07,15.07,0,14.55v0c6.09.55,8.27-.69,11.16-1.95s6.34-2.78,9-2.59A7.75,7.75,0,0,0,25,7V6.7A7.72,7.72,0,0,1,21.92,9.35Z" transform="translate(0 -3.3)"/><path class="cls-6" d="M21.84,9.38A10.35,10.35,0,0,1,20,10c-2.7-.18-6.21,1.28-9,2.62S6,15,0,14.52v0c6,.52,8.23-.67,11.09-1.93s6.29-2.79,9-2.57A7.84,7.84,0,0,0,25,7V6.73A7.54,7.54,0,0,1,21.84,9.38Z" transform="translate(0 -3.3)"/><path class="cls-6" d="M21.76,9.41a10.28,10.28,0,0,1-1.83.56c-2.71-.2-6.19,1.28-8.93,2.61S6,15,0,14.49v0c6,.49,8.18-.65,11-1.91s6.23-2.79,9-2.56a7.81,7.81,0,0,0,5-3V6.76A7.53,7.53,0,0,1,21.76,9.41Z" transform="translate(0 -3.3)"/><path class="cls-6" d="M21.68,9.44a10.72,10.72,0,0,1-1.85.53c-2.73-.21-6.17,1.28-8.9,2.6S5.93,14.89,0,14.46v0c6,.46,8.13-.64,11-1.89s6.19-2.8,8.93-2.54a7.92,7.92,0,0,0,5.11-3V6.8A7.43,7.43,0,0,1,21.68,9.44Z" transform="translate(0 -3.3)"/><path class="cls-6" d="M0,14.2H0c6.32.1,8.72-.45,11.52-1.92C8.73,13.51,6.13,14,0,14.2Z" transform="translate(0 -3.3)"/><path class="cls-6" d="M25,6.79a14.07,14.07,0,0,1-3.48,2.69h.06A7.43,7.43,0,0,0,25,6.83Z" transform="translate(0 -3.3)"/><path class="cls-6" d="M20.71,9.92l.81-.44c-2.48-.06-6.58,1.27-10,2.8A50.82,50.82,0,0,1,20.71,9.92Z" transform="translate(0 -3.3)"/><path class="cls-6" d="M0,14.17H0c6.29.08,8.68-.43,11.46-1.91C8.68,13.49,6.1,13.93,0,14.17Z" transform="translate(0 -3.3)"/><path class="cls-6" d="M20.67,9.9l.77-.41c-2.49-.11-6.57,1.25-10,2.77A48.8,48.8,0,0,1,20.67,9.9Z" transform="translate(0 -3.3)"/><path class="cls-6" d="M25,6.81a14.51,14.51,0,0,1-3.56,2.68h0A7.37,7.37,0,0,0,25,6.85Z" transform="translate(0 -3.3)"/><path class="cls-6" d="M21.4,9.54a14.61,14.61,0,0,1-1.87.45c-2.77-.27-6.11,1.3-8.79,2.56S5.8,14.72,0,14.37v0c5.81.38,8-.59,10.76-1.82s6-2.81,8.82-2.51A8.06,8.06,0,0,0,25,7.2V7A7.28,7.28,0,0,1,21.4,9.54Z" transform="translate(0 -3.3)"/><path class="cls-6" d="M21.32,9.56a13.73,13.73,0,0,1-1.89.43c-2.78-.27-6.09,1.31-8.76,2.55S5.75,14.67,0,14.34v0c5.76.36,8-.57,10.7-1.78s6-2.82,8.78-2.51a14.45,14.45,0,0,0,1.88-.41A7.08,7.08,0,0,0,25,7.24V7A7.18,7.18,0,0,1,21.32,9.56Z" transform="translate(0 -3.3)"/><path class="cls-6" d="M21.24,9.58a15.3,15.3,0,0,1-1.91.42c-2.79-.29-6.07,1.31-8.72,2.54S5.7,14.61,0,14.31v0c5.72.33,7.9-.56,10.63-1.76s5.94-2.82,8.75-2.5A8.26,8.26,0,0,0,25,7.29V7A7.18,7.18,0,0,1,21.24,9.58Z" transform="translate(0 -3.3)"/><path class="cls-6" d="M21.16,9.6a17.76,17.76,0,0,1-1.93.4c-2.81-.3-6,1.32-8.69,2.53S5.66,14.55,0,14.28v0c5.67.31,7.86-.54,10.57-1.73s5.89-2.83,8.71-2.5A8.38,8.38,0,0,0,25,7.32V7.07A7.2,7.2,0,0,1,21.16,9.6Z" transform="translate(0 -3.3)"/><path class="cls-6" d="M21.07,9.62a18,18,0,0,1-1.94.38c-2.82-.3-6,1.33-8.65,2.52S5.61,14.5,0,14.24v0c5.62.28,7.81-.53,10.5-1.71s5.85-2.82,8.68-2.49A8.5,8.5,0,0,0,25,7.36V7.1A7.21,7.21,0,0,1,21.07,9.62Z" transform="translate(0 -3.3)"/><path class="cls-6" d="M0,14v0c6.33,0,8.64-.46,11.46-2C8.65,13.26,6.07,13.57,0,14Z" transform="translate(0 -3.3)"/><path class="cls-6" d="M20.89,9.8l.78-.41c-.25.08-.47.19-.73.26-2.49-.29-6.28,1-9.48,2.4A54.4,54.4,0,0,1,20.89,9.8Z" transform="translate(0 -3.3)"/><path class="cls-6" d="M25,7a14.64,14.64,0,0,1-3.33,2.39A7.31,7.31,0,0,0,25,7.15Z" transform="translate(0 -3.3)"/><path class="cls-6" d="M20.91,9.65c-.62.15-1.29.26-2,.36-2.84-.32-6,1.34-8.58,2.5S5.52,14.39,0,14.18v0c5.53.23,7.72-.51,10.37-1.67S16.13,9.74,19,10.08a8.75,8.75,0,0,0,6-2.66V7.18A7.25,7.25,0,0,1,20.91,9.65Z" transform="translate(0 -3.3)"/><path class="cls-6" d="M20.83,9.67c-.63.14-1.3.24-2,.34-2.84-.32-5.95,1.35-8.54,2.49S5.47,14.33,0,14.15v0c5.48.21,7.67-.49,10.31-1.64s5.71-2.8,8.57-2.45A8.94,8.94,0,0,0,25,7.45V7.22A7.27,7.27,0,0,1,20.83,9.67Z" transform="translate(0 -3.3)"/><path class="cls-6" d="M20.75,9.69c-.64.13-1.31.23-2,.32-2.85-.32-5.92,1.36-8.51,2.48S5.42,14.27,0,14.12v0c5.44.18,7.63-.48,10.24-1.61s5.67-2.8,8.53-2.46C21.3,9.85,23.36,9.24,25,7.5V7.26A7.35,7.35,0,0,1,20.75,9.69Z" transform="translate(0 -3.3)"/><path class="cls-6" d="M0,13.92H0c4.43,0,6.62.17,8.82-.87C6.67,13.92,4.39,13.74,0,13.92Z" transform="translate(0 -3.3)"/><path class="cls-6" d="M18.25,10.19l2.2-.47c-.59.11-1.18.21-1.82.29-3.4-.06-6.8,1.59-9.81,3.05C12,11.81,15,10.32,18.25,10.19Z" transform="translate(0 -3.3)"/><path class="cls-6" d="M20.58,9.71c-.65.13-1.34.21-2,.3-2.86-.31-5.87,1.38-8.43,2.47S5.33,14.17,0,14.06v0c5.35.13,7.53-.46,10.12-1.57s5.58-2.78,8.45-2.44c2.62-.22,4.74-.78,6.43-2.51V7.34A7.38,7.38,0,0,1,20.58,9.71Z" transform="translate(0 -3.3)"/><path class="cls-6" d="M25,7.23a14.87,14.87,0,0,1-3.12,2.13A7,7,0,0,0,25,7.41Z" transform="translate(0 -3.3)"/><path class="cls-6" d="M0,13.84V14c5.83,0,8-.22,10.84-1.89C8.16,13.17,5.63,13.19,0,13.84Z" transform="translate(0 -3.3)"/><path class="cls-6" d="M21.14,9.73l.74-.37a13,13,0,0,1-1.43.38c-.64.11-1.32.19-2,.27a17.65,17.65,0,0,0-7.59,2.05A56.4,56.4,0,0,1,21.14,9.73Z" transform="translate(0 -3.3)"/><path class="cls-6" d="M20.36,9.75c-.64.11-1.33.18-2,.26-2.87-.31-5.82,1.4-8.36,2.45S5.24,14.06,0,14v0c5.25.09,7.44-.43,10-1.52s5.5-2.76,8.38-2.42c2.7-.19,4.91-.67,6.63-2.36V7.47A7.43,7.43,0,0,1,20.36,9.75Z" transform="translate(0 -3.3)"/><path class="cls-6" d="M20.28,9.76c-.65.1-1.34.17-2.06.25-2.86-.3-5.79,1.41-8.31,2.45S5.2,14,0,14v0c5.21.07,7.4-.42,9.93-1.49s5.46-2.75,8.33-2.42c2.75-.18,5-.64,6.74-2.32V7.51A7.52,7.52,0,0,1,20.28,9.76Z" transform="translate(0 -3.3)"/><path class="cls-6" d="M20.19,9.77c-.65.1-1.35.17-2.07.25-6.66.15-8.32,4.5-18.12,4v0c9.82.56,11.48-3.86,18.16-3.95.72-.07,1.42-.14,2.07-.23A7.54,7.54,0,0,0,25,7.75v-.2A7.61,7.61,0,0,1,20.19,9.77Z" transform="translate(0 -3.3)"/><path class="cls-6" d="M0,13.75H0c4.36-.09,6.52.12,8.71-.88C6.58,13.7,4.32,13.47,0,13.75Z" transform="translate(0 -3.3)"/><path class="cls-6" d="M18.12,10.12c.58-.12,1.15-.22,1.7-.32L18,10c-3.31,0-6.43,1.56-9.31,2.86C11.84,11.7,14.84,10.22,18.12,10.12Z" transform="translate(0 -3.3)"/><path class="cls-6" d="M6,13.6c2.92-.36,5-1.91,7.55-2.75A35.73,35.73,0,0,0,9.43,12.5,14.93,14.93,0,0,1,6,13.6Z" transform="translate(0 -3.3)"/><path class="cls-6" d="M0,13.75H0c2.69-.08,4.4.16,6-.15C4.4,13.85,2.66,13.6,0,13.75Z" transform="translate(0 -3.3)"/><path class="cls-6" d="M25,7.63a7.84,7.84,0,0,1-5,2.16L17.92,10c-.37,0-.75.08-1.12.13A11.45,11.45,0,0,1,18,10.08c2.88-.18,5.23-.55,7-2.21Z" transform="translate(0 -3.3)"/><path class="cls-6" d="M5.9,13.57c2.91-.35,4.92-1.87,7.51-2.71A38.69,38.69,0,0,0,9.35,12.5,14.67,14.67,0,0,1,5.9,13.57Z" transform="translate(0 -3.3)"/><path class="cls-6" d="M0,13.72H0c2.66-.09,4.36.15,5.9-.15C4.36,13.81,2.63,13.57,0,13.72Z" transform="translate(0 -3.3)"/><path class="cls-6" d="M25,7.65A7.59,7.59,0,0,1,19.9,9.8c-.68.09-1.38.14-2.08.22-.37,0-.75.07-1.12.13a9.14,9.14,0,0,1,1.16-.07c2.63-.25,5.05-.22,7.14-2.25Z" transform="translate(0 -3.3)"/><path class="cls-6" d="M5.85,13.54c2.89-.33,4.9-1.83,7.46-2.67a41.57,41.57,0,0,0-4,1.63A14.55,14.55,0,0,1,5.85,13.54Z" transform="translate(0 -3.3)"/><path class="cls-6" d="M0,13.68H0c2.63-.09,4.32.15,5.85-.14C4.32,13.77,2.6,13.53,0,13.68Z" transform="translate(0 -3.3)"/><path class="cls-6" d="M25,7.68a7.71,7.71,0,0,1-5.19,2.13c-.68.08-1.39.14-2.09.21-.44,0-.88.08-1.32.15.46-.05.91-.08,1.36-.1,2.67-.25,5.12-.18,7.24-2.21Z" transform="translate(0 -3.3)"/><path class="cls-6" d="M0,13.65H0a52.7,52.7,0,0,0,5.79-.15C4.28,13.73,2.57,13.49,0,13.65Z" transform="translate(0 -3.3)"/><path class="cls-6" d="M5.79,13.5c3.13-.34,5.27-2,8.12-2.84a34.36,34.36,0,0,0-4.73,1.85A14.14,14.14,0,0,1,5.79,13.5Z" transform="translate(0 -3.3)"/><path class="cls-6" d="M25,7.72a7.76,7.76,0,0,1-5.27,2.1l-2.11.2c-.53.05-1.07.1-1.59.19a15.15,15.15,0,0,1,1.63-.14c2.7-.25,5.2-.15,7.34-2.16Z" transform="translate(0 -3.3)"/><path class="cls-7" d="M25,16c-1,.41-2.4-.54-3.95-1.17-2.7-1.5-5.92-2-8-1.36a12.64,12.64,0,0,1-9.57-.7c3.33,1.53,6,2,9.69.78l.11,0A10.68,10.68,0,0,1,21,14.92c1.54.65,2.91,1.64,4,1.18Z" transform="translate(0 -3.3)"/><path class="cls-7" d="M20.73,14.68a10.88,10.88,0,0,0-7.86-1.15C8.67,15.25,5.11,13.15,0,11.7v.1c5.13,1.4,8.68,3.55,12.87,1.8a10.63,10.63,0,0,1,7.93,1.21c1.64.68,3.11,1.82,4.2,1.41v-.3C23.91,16.47,22.4,15.35,20.73,14.68Z" transform="translate(0 -3.3)"/><path class="cls-7" d="M20.88,14.73c-2.6-1.36-5.68-1.88-7.75-1.24C8.88,15.21,5.43,13.3,0,11.7v.1c5.45,1.55,8.89,3.52,13.13,1.75,2.08-.66,5.2-.12,7.82,1.31,1.61.68,3,1.68,4.05,1.24v-.3C24,16.38,22.52,15.39,20.88,14.73Z" transform="translate(0 -3.3)"/><path class="cls-7" d="M20.49,14.55a10.93,10.93,0,0,0-7.61-1C8.75,15.25,5.39,13.17,0,11.67v.1c5.41,1.44,8.76,3.59,12.89,1.85a10.65,10.65,0,0,1,7.68,1.06c1.75.71,3.34,1.93,4.43,1.32v-.32C23.91,16.45,22.28,15.24,20.49,14.55Z" transform="translate(0 -3.3)"/><path class="cls-7" d="M19,14c-2.88-1.42-5.57-.3-7.4-.1-3.73,1.4-7-1.32-11.59-2.28v.09c4.56.93,7.87,3.68,11.59,2.26,1.83-.2,4.56-1.36,7.46.12,2.2.68,4.49,2.91,5.95,1.7v-.36C23.55,16.82,21.21,14.6,19,14Z" transform="translate(0 -3.3)"/><path class="cls-7" d="M18.73,13.86c-2.85-1.33-5.44-.13-7.26,0C7.8,15.24,4.57,12.5,0,11.55v.09c4.6.93,7.83,3.69,11.5,2.31,1.82-.17,4.45-1.39,7.31,0,2.27.66,4.7,3,6.19,1.62v-.38C23.53,16.85,21,14.49,18.73,13.86Z" transform="translate(0 -3.3)"/><path class="cls-7" d="M18.48,13.77c-2.81-1.22-5.3,0-7.11.15C7.76,15.22,4.61,12.47,0,11.52v.08c4.65,1,7.79,3.72,11.43,2.38,1.81-.15,4.33-1.4,7.15-.11C20.93,14.5,23.5,17,25,15.35V15C23.51,16.86,20.87,14.38,18.48,13.77Z" transform="translate(0 -3.3)"/><path class="cls-7" d="M18.26,13.7c-2.77-1.12-5.16.14-7,.25C7.72,15.22,4.65,12.46,0,11.49v.09c4.69,1,7.75,3.74,11.36,2.43,1.79-.12,4.22-1.4,7-.22,2.42.6,5.13,3.16,6.64,1.36v-.39C23.5,16.85,20.73,14.27,18.26,13.7Z" transform="translate(0 -3.3)"/><path class="cls-7" d="M18,13.64c-2.72-1-5,.25-6.81.34C7.68,15.21,4.69,12.44,0,11.46v.08c4.68,1,7.55,3.72,11.05,2.58,1.83-.06,4.13-1.48,6.9-.44,2.53.52,5.47,3.2,7.05,1.25v-.39C23.5,16.84,20.58,14.17,18,13.64Z" transform="translate(0 -3.3)"/><path class="cls-7" d="M0,11.47H0c2.85.75,4.76,2,6.74,2.44C4.79,13.34,2.77,12,0,11.47Z" transform="translate(0 -3.3)"/><path class="cls-7" d="M25,14.34a.25.25,0,0,1,0,.07c-1.44,1.93-3.16.55-5-.08,2,.72,3.79,2.23,5.06.42Z" transform="translate(0 -3.3)"/><path class="cls-7" d="M6.74,13.92a8,8,0,0,0,4,.27c1.92-.26,4-1.24,6.8-.61C13,12.68,10.11,15,6.74,13.92Z" transform="translate(0 -3.3)"/><path class="cls-7" d="M24.75,14.51c-4.53,1-10.3-2.67-13.73-.83s-6.13-.94-11-2.21v.08c4.92,1.27,7.63,4.1,11.1,2.45,3.41-2.15,9.25,1.63,13.77.75l.13-.21v-.42A2.91,2.91,0,0,1,24.75,14.51Z" transform="translate(0 -3.3)"/><path class="cls-7" d="M.09,11.42c2.72.72,4.55,2,6.41,2.46C4.68,13.27,2.79,12,.09,11.42Z" transform="translate(0 -3.3)"/><path class="cls-7" d="M6.5,13.88a7.68,7.68,0,0,0,3.73.45c1.95-.12,4-1.31,6.87-.85C12.67,13,9.89,15.14,6.5,13.88Z" transform="translate(0 -3.3)"/><path class="cls-7" d="M25,13.92a4.6,4.6,0,0,1-.46.67c-1.86,1.56-4.18-.52-6.36-.88,2.37.41,4.85,2.8,6.48,1.12.11-.14.23-.3.34-.47Z" transform="translate(0 -3.3)"/><path class="cls-7" d="M24.32,14.65c-2.29,1-5.63-1.22-8.15-1.3-2.63-.47-4.44,1.23-6.19,1-3.23.63-5.88-2.23-10-3v.09c4.12.77,6.77,3.66,10,3,1.76.27,3.57-1.48,6.22-1,2.54.1,5.91,2.46,8.18,1.47a4,4,0,0,0,.57-.73v-.41A4.58,4.58,0,0,1,24.32,14.65Z" transform="translate(0 -3.3)"/><path class="cls-7" d="M24.09,14.68c-2.36.73-5.61-1.3-8.06-1.32-2.56-.38-4.3,1.24-6,1C6.79,15,4.25,12.14,0,11.29v.13c4.55,1,6.83,3.5,9.69,3,1.88.39,3.67-1.44,6.34-1,2.55,0,6,2.24,8.18,1.49A3.93,3.93,0,0,0,25,14v-.4A4.33,4.33,0,0,1,24.09,14.68Z" transform="translate(0 -3.3)"/><path class="cls-7" d="M23.86,14.7c-2.42.46-5.6-1.37-8-1.35-2.49-.3-4.19,1.25-5.9,1C6.78,15,4.31,12.15,0,11.27v.09c4.33.87,6.8,3.77,10,3.1,1.72.21,3.42-1.38,5.94-1.05,2.41,0,5.62,1.91,8,1.51a3.86,3.86,0,0,0,1-1.09v-.44A4.18,4.18,0,0,1,23.86,14.7Z" transform="translate(0 -3.3)"/><path class="cls-7" d="M9.32,14.48C6.23,14.78,3.84,12,0,11.22v.15c3.93.85,6.26,3.29,9.14,3.17,1.42.43,2.72-.5,4.39-.93A17.57,17.57,0,0,0,9.32,14.48Z" transform="translate(0 -3.3)"/><path class="cls-7" d="M13.53,13.61a25.53,25.53,0,0,1,3.53,0,7.21,7.21,0,0,0-1.76-.13A6,6,0,0,0,13.53,13.61Z" transform="translate(0 -3.3)"/><path class="cls-7" d="M25,13.23a4,4,0,0,1-1.37,1.46,29.22,29.22,0,0,0-6.57-1.13c2.2.38,4.72,1.44,6.69,1.35A3.66,3.66,0,0,0,25,13.65Z" transform="translate(0 -3.3)"/><path class="cls-7" d="M23.39,14.67c-2.67-.08-6-1.55-8.48-1.26-2.55,0-4.17,1.72-6,1.1C6.14,14.54,4,12.18,0,11.26v.09c4,.9,6.12,3.26,8.86,3.23,1.89.65,3.51-1.14,6.09-1.12,2.46-.28,5.88,1.25,8.56,1.42A3.46,3.46,0,0,0,25,13.51v-.4A3.83,3.83,0,0,1,23.39,14.67Z" transform="translate(0 -3.3)"/><path class="cls-7" d="M23.15,14.63c-6.46-2.36-11.47-.36-14.54-.09C5.9,14.39,3.67,12.08,0,11.24v.09c3.65.82,5.87,3.14,8.58,3.29,3.1-.27,8.17-2.38,14.69.22A3.35,3.35,0,0,0,25,13.39V13A3.65,3.65,0,0,1,23.15,14.63Z" transform="translate(0 -3.3)"/><path class="cls-7" d="M0,11.48c2.53.89,4.75,2.09,6.93,2.75-2.07-.73-4.08-2.34-6.93-3Z" transform="translate(0 -3.3)"/><path class="cls-7" d="M13.71,13.64c-1.81.48-3.3,1.08-4.71,1A7.89,7.89,0,0,0,13.71,13.64Z" transform="translate(0 -3.3)"/><path class="cls-7" d="M22.32,14.57c-3.83-1.4-6.69-1.63-8.61-.93C15.9,12.75,19.25,13.92,22.32,14.57Z" transform="translate(0 -3.3)"/><path class="cls-7" d="M25,12.71a3.42,3.42,0,0,1-2.36,1.8,4.71,4.71,0,0,1-.53,0l.65.23A3.19,3.19,0,0,0,25,13.12Z" transform="translate(0 -3.3)"/><path class="cls-7" d="M0,11.45c2.58.9,4.88,2.26,7.17,2.93C5,13.7,3,12,0,11.22Z" transform="translate(0 -3.3)"/><path class="cls-7" d="M13.17,13.8c-1.84.57-3.36,1.12-4.8.83a6,6,0,0,1-1-.18A7.2,7.2,0,0,0,13.17,13.8Z" transform="translate(0 -3.3)"/><path class="cls-7" d="M22.11,14.48c-4.19-1.63-7-1.45-8.94-.68C15.34,12.78,18.77,13.65,22.11,14.48Z" transform="translate(0 -3.3)"/><path class="cls-7" d="M22.39,14.44c-6.77-2.61-11,.51-14,.26C5.6,14.43,3.56,12.12,0,11.21v0c3.56.8,5.55,3.43,8.46,3.53,3,.28,6.59-3,14.05-.16A3.24,3.24,0,0,0,25,13v-.41A3.44,3.44,0,0,1,22.39,14.44Z" transform="translate(0 -3.3)"/><path class="cls-7" d="M22.12,14.36c-7.52-2.65-10.81.85-13.8.4C5.42,14.6,3.51,12,0,11.18v.09c3.48.8,5.4,3.4,8.29,3.57,3,.49,6.33-3.19,14-.3A3.23,3.23,0,0,0,25,12.87v-.41A3.45,3.45,0,0,1,22.12,14.36Z" transform="translate(0 -3.3)"/><path class="cls-7" d="M21.86,14.27c-7.56-2.59-10.64,1.11-13.62.55C5.31,14.63,3.47,12,0,11.19v.1c3.44.79,5.29,3.41,8.21,3.61,3,.6,6.1-3.27,13.77-.45a3.28,3.28,0,0,0,3-1.7v-.42A3.45,3.45,0,0,1,21.86,14.27Z" transform="translate(0 -3.3)"/><path class="cls-7" d="M21.59,14.17c-7.6-2.5-10.48,1.38-13.46.71C5.18,14.64,3.42,12,0,11.2v.1c3.39.79,5.16,3.41,8.1,3.66,3,.72,5.9-3.34,13.61-.61A3.35,3.35,0,0,0,25,12.63V12.2A3.5,3.5,0,0,1,21.59,14.17Z" transform="translate(0 -3.3)"/><path class="cls-7" d="M21.31,14.08C13.67,11.69,11,15.72,8,14.94c-3-.3-4.64-2.93-8-3.72H0v.1c3.32.78,5,3.4,8,3.71,3,.84,5.72-3.39,13.48-.78A3.44,3.44,0,0,0,25,12.5v-.41A3.62,3.62,0,0,1,21.31,14.08Z" transform="translate(0 -3.3)"/><path class="cls-7" d="M21,14c-7.69-2.26-10.21,1.92-13.21,1-2.91-.35-4.51-2.88-7.66-3.7l-.17,0v.1H0c3,.91,4.94,3.19,7.77,3.7,3,.94,6.29-3.42,13.38-.9A3.57,3.57,0,0,0,25,12.4V12A3.71,3.71,0,0,1,21,14Z" transform="translate(0 -3.3)"/><path class="cls-7" d="M20.76,13.88C13,11.79,10.66,16.07,7.66,15c-2.89-.41-4.41-2.86-7.39-3.69L0,11.27v.1l.1,0c2.86.92,4.7,3.11,7.49,3.68,3,1.09,6.15-3.43,13.29-1.05A3.7,3.7,0,0,0,25,12.29v-.43A3.85,3.85,0,0,1,20.76,13.88Z" transform="translate(0 -3.3)"/><path class="cls-7" d="M25,11.74a4,4,0,0,1-4.52,2c-7.75-1.9-10,2.45-13,1.3a6.51,6.51,0,0,1-1.38-.4,8.76,8.76,0,0,0,1.31.44c3.07,1.23,6-3.41,13.21-1.2A3.85,3.85,0,0,0,25,12.17Z" transform="translate(0 -3.3)"/><path class="cls-7" d="M.31,11.4,0,11.3v.1l.14,0A30,30,0,0,1,5,14.1C3.49,13.2,2.19,12,.31,11.4Z" transform="translate(0 -3.3)"/><path class="cls-7" d="M20.2,13.68c-7-1.85-10,2.71-13,1.4C4.52,14.4,2.81,12.42.31,11.46c-.1-.05-.21-.07-.31-.11v.11l.14,0c2.56.92,4.3,2.95,7,3.65,3.06,1.37,6-3.37,13.14-1.34,1.94.35,3.46.13,4.69-1.75v-.42C23.75,13.7,22.19,14,20.2,13.68Z" transform="translate(0 -3.3)"/><path class="cls-7" d="M19.91,13.58c-7-1.65-9.91,3-12.95,1.52-2.65-.74-4.31-2.65-6.68-3.6L0,11.4v.11l.1,0c2.43.91,4.12,2.85,6.83,3.63,3.1,1.52,6-3.28,13.1-1.46,2.07.37,3.68.22,5-1.76v-.41C23.69,13.7,22,13.91,19.91,13.58Z" transform="translate(0 -3.3)"/><path class="cls-7" d="M19.62,13.48c-7-1.42-9.83,3.23-12.91,1.64-2.63-.82-4.25-2.65-6.5-3.58L0,11.46v.11H0c2.44.72,3.79,2.87,6.64,3.62,3.19,1.59,5.16-2.94,13.07-1.59,2.21.39,3.91.32,5.26-1.75v-.41C23.63,13.71,21.88,13.83,19.62,13.48Z" transform="translate(0 -3.3)"/><path class="cls-7" d="M19.34,13.39c-7-1.18-9.78,3.46-12.89,1.74-2.62-.89-4.2-2.64-6.34-3.55L0,11.53v.12c2.29.73,3.6,2.73,6.41,3.56,3.22,1.7,5.13-2.77,13-1.69,2.34.4,4.14.42,5.55-1.75v-.43C23.57,13.71,21.73,13.75,19.34,13.39Z" transform="translate(0 -3.3)"/><path class="cls-7" d="M19.05,13.31C12,12.39,9.32,17,6.18,15.13,3.57,14.17,2,12.52,0,11.62v.12c2.1.74,3.38,2.59,6.14,3.47,3.25,1.8,5.13-2.56,13-1.79,2.48.41,4.37.52,5.84-1.75v-.43C23.51,13.71,21.58,13.67,19.05,13.31Z" transform="translate(0 -3.3)"/><path class="cls-7" d="M18.76,13.23c-7.19-.59-9.89,4-13.13,1.79C3.25,14,1.78,12.6,0,11.73v.13c1.74.84,3.23,2.18,5.59,3.22,3.33,2.28,5.92-2.43,13.28-1.74,2.61.39,4.6.6,6.13-1.77v-.44C23.46,13.71,21.43,13.58,18.76,13.23Z" transform="translate(0 -3.3)"/><path class="cls-7" d="M18.47,13.15C11.29,12.88,8.57,17.3,5.3,15,3,13.93,1.6,12.7,0,11.86V12c1.57.81,3,2,5.25,3,3.37,2.41,6-2.15,13.33-1.79,2.75.38,4.84.69,6.42-1.79V11C23.4,13.72,21.27,13.48,18.47,13.15Z" transform="translate(0 -3.3)"/><path class="cls-7" d="M18.19,13.09C11,13.14,8.26,17.36,5,14.93c-2.17-1-3.53-2.13-5-2.93v.14c1.4.77,2.78,1.79,4.9,2.85,3.41,2.52,6.06-1.83,13.39-1.81,2.88.35,5.07.76,6.71-1.82v-.44C23.35,13.73,21.12,13.38,18.19,13.09Z" transform="translate(0 -3.3)"/><path class="cls-7" d="M17.9,13c-7.13.39-10,4.38-13.3,1.85-2-1-3.33-1.95-4.6-2.7v.15c1.24.71,2.56,1.58,4.55,2.6C8,17.54,10.71,13.44,18,13.12c3,.3,5.3.83,7-1.86v-.44C23.29,13.75,21,13.28,17.9,13Z" transform="translate(0 -3.3)"/><path class="cls-7" d="M17.61,13c-7.08.73-10,4.43-13.37,1.83-1.88-1-3.12-1.75-4.24-2.43v.15c1.1.62,2.35,1.37,4.19,2.33,3.46,2.7,6.27-1.11,13.53-1.79,3.13.24,5.52.9,7.28-1.9v-.42C23.23,13.77,20.8,13.17,17.61,13Z" transform="translate(0 -3.3)"/><path class="cls-7" d="M17.33,12.92c-7,1.08-10.06,4.46-13.46,1.81C2.16,13.83,1,13.17,0,12.59v.14c1,.54,2.15,1.17,3.81,2,3.5,2.75,6.42-.72,13.62-1.77,3.26.18,5.76,1,7.57-1.93v-.42C23.18,13.79,20.64,13.05,17.33,12.92Z" transform="translate(0 -3.3)"/><path class="cls-7" d="M17.05,12.88c-7,1.43-10.13,4.45-13.56,1.76C2,13.86.88,13.3,0,12.81v.13c.88.45,2,1,3.42,1.74C7,17.47,10,14.36,17.15,13c3.38.1,6,1,7.85-2v-.45C23.13,13.8,20.48,12.93,17.05,12.88Z" transform="translate(0 -3.3)"/><path class="cls-7" d="M16.77,12.85c-6.94,1.78-10.2,4.41-13.68,1.7C1.78,13.89.79,13.43,0,13v.12c.79.36,1.77.8,3,1.44,3.58,2.79,6.75.1,13.85-1.67,3.49,0,6.21,1.09,8.13-2v-.45C23.07,13.82,20.32,12.81,16.77,12.85Z" transform="translate(0 -3.3)"/><path class="cls-7" d="M16.49,12.83C9.61,15,6.2,17.14,2.68,14.46c-1.1-.54-2-.91-2.68-1.22v.1c.7.29,1.55.64,2.6,1.15,3.63,2.77,6.94.54,14-1.59C20.2,12.8,23,14,25,10.78v-.42C23,13.86,20.15,12.68,16.49,12.83Z" transform="translate(0 -3.3)"/><path class="cls-7" d="M16.22,12.81C9.39,15.28,5.83,17,2.25,14.36,1.36,14,.62,13.67,0,13.43v.08c.61.22,1.32.49,2.17.88,3.69,2.73,7.15,1,14.14-1.51C20,12.67,23,14.06,25,10.7v-.43C23,13.89,20,12.55,16.22,12.81Z" transform="translate(0 -3.3)"/><path class="cls-7" d="M16,12.8c-6.78,2.8-10.5,4-14.14,1.47C1.12,14,.52,13.77,0,13.59v.08c.5.16,1.08.36,1.72.63C5.48,16.93,9.1,15.7,16,12.87c3.82-.34,6.88,1.21,9-2.25v-.43C22.91,13.92,19.81,12.41,16,12.8Z" transform="translate(0 -3.3)"/><path class="cls-7" d="M15.68,12.8C9,15.93,5.08,16.62,1.34,14.18.85,14,.41,13.85,0,13.74v.06c.38.11.8.24,1.25.41,3.84,2.5,7.63,1.83,14.52-1.35,3.92-.47,7.09,1.25,9.23-2.32v-.45C22.86,13.94,19.64,12.27,15.68,12.8Z" transform="translate(0 -3.3)"/><path class="cls-7" d="M15.42,12.81C8.72,16.26,4.69,16.37.86,14.11.55,14,.27,13.93,0,13.86v.06c.24.06.49.12.75.21,4,2.32,7.91,2.24,14.75-1.26,4-.63,7.31,1.26,9.5-2.43V10C22.81,14,19.47,12.13,15.42,12.81Z" transform="translate(0 -3.3)"/><path class="cls-7" d="M15.15,12.83C8.5,16.58,4.31,16.09.34,14L0,14V14l.23.05c4.09,2.09,8.2,2.64,15-1.19,4.1-.78,7.52,1.28,9.76-2.53V9.92C22.76,14,19.29,12,15.15,12.83Z" transform="translate(0 -3.3)"/><path class="cls-7" d="M14.89,12.85c-6.51,4-10.83,3-14.89,1.23v.08c4.15,1.72,8.37,2.78,15-1.26,4.19-1,7.73,1.29,10-2.62V9.83C22.71,14,19.12,11.84,14.89,12.85Z" transform="translate(0 -3.3)"/><path class="cls-7" d="M14.64,12.88C8.44,17,4.08,15.6,0,14.25v.07c4.16,1.36,8.43,2.74,14.72-1.39C19,11.8,22.65,14.22,25,10.19V9.75C22.66,14.08,18.94,11.69,14.64,12.88Z" transform="translate(0 -3.3)"/><path class="cls-7" d="M14.39,12.91C8.46,17,4.12,15.49,0,14.34v.06C4.21,15.6,8.52,17.06,14.47,13c4.34-1.32,8.13,1.3,10.53-2.85V9.66C22.61,14.13,18.77,11.54,14.39,12.91Z" transform="translate(0 -3.3)"/><path class="cls-7" d="M14.14,13C8.44,17,4.21,15.51,0,14.39v.06C4.29,15.62,8.5,17,14.22,13c4.41-1.51,8.33,1.3,10.78-3V9.56C22.57,14.16,18.59,11.39,14.14,13Z" transform="translate(0 -3.3)"/><path class="cls-7" d="M13.89,13C8.43,16.92,4.3,15.54,0,14.44v.05C4.37,15.65,8.49,17,14,13c4.48-1.7,8.54,1.3,11-3.12V9.45C22.52,14.21,18.42,11.24,13.89,13Z" transform="translate(0 -3.3)"/></g><g class="cls-8"><g class="cls-9"><path class="cls-5" d="M.65,16.86a9,9,0,0,1,1.4-1.74c2.6-2.6,6.15-1.12,9.76-3.57C15.06,9.28,17.44,4,25,7.07V7c-7.58-3.11-10,2.25-13.23,4.52-3.63,2.45-7.22.84-9.82,3.36A12.36,12.36,0,0,0,0,17.58v.47C.21,17.63.43,17.23.65,16.86Z" transform="translate(0 -3.3)"/><path class="cls-5" d="M0,18.22c.24-.47.48-.91.73-1.32C3,13,5.4,14,9.73,12.66c1.77-.45,3.37-2.05,5.12-3.76a18.75,18.75,0,0,1-4,3.1c-3.68,1.74-7.18.77-9.21,3.46A10.81,10.81,0,0,0,0,17.72Z" transform="translate(0 -3.3)"/><path class="cls-5" d="M24.6,7.3c-5-1.67-7.7-.4-9.75,1.6C16.91,7.08,19.67,5.92,24.6,7.3Z" transform="translate(0 -3.3)"/><path class="cls-5" d="M0,18.4c.28-.54.56-1,.85-1.5a8.9,8.9,0,0,1,1.44-1.67c2.63-2.42,6.16-1.14,9.69-3.62A35.11,35.11,0,0,0,15.63,8.4c-1.78,1.33-3.15,2.94-4.76,3.66-3.66,1.76-7.14.88-9.18,3.53A10.59,10.59,0,0,0,0,18Z" transform="translate(0 -3.3)"/><path class="cls-5" d="M25,7.48V7.4c-4.55-1.75-7.26-.94-9.37,1C17.67,6.84,20.4,6.27,25,7.48Z" transform="translate(0 -3.3)"/><path class="cls-5" d="M1,16.86a8.46,8.46,0,0,1,1.43-1.58c2.64-2.33,6.15-1.15,9.64-3.64,3.2-2.32,5.55-7.1,12.94-4.29v-.1c-7.41-2.88-9.79,2-13,4.32-3.51,2.49-7,1.2-9.7,3.45A11.38,11.38,0,0,0,0,18v.5A15.52,15.52,0,0,1,1,16.86Z" transform="translate(0 -3.3)"/><path class="cls-5" d="M1.09,16.9a8.09,8.09,0,0,1,1.45-1.56c2.65-2.25,6.15-1.17,9.61-3.67,3.18-2.34,5.51-7,12.85-4.23v-.1c-7.36-2.8-9.72,1.92-12.89,4.26-3.47,2.51-7,1.31-9.67,3.48A11.56,11.56,0,0,0,0,18.2v.52A16.21,16.21,0,0,1,1.09,16.9Z" transform="translate(0 -3.3)"/><path class="cls-5" d="M1.17,17A8.19,8.19,0,0,1,2.66,15.4c2.67-2.18,6.15-1.19,9.57-3.7C15.39,9.35,17.72,4.87,25,7.53v-.1c-7.3-2.72-9.65,1.85-12.81,4.2-3.43,2.52-6.95,1.42-9.62,3.52A11.69,11.69,0,0,0,0,18.4v.51A18.46,18.46,0,0,1,1.17,17Z" transform="translate(0 -3.3)"/><path class="cls-5" d="M1.27,17a8.47,8.47,0,0,1,1.52-1.53c2.68-2.09,6.14-1.2,9.52-3.72C15.46,9.37,17.77,5,25,7.62v-.1c-7.25-2.64-9.58,1.78-12.73,4.14-3.39,2.52-6.89,1.53-9.58,3.55A11.93,11.93,0,0,0,0,18.54v.54A16.89,16.89,0,0,1,1.27,17Z" transform="translate(0 -3.3)"/><path class="cls-5" d="M1.42,17a8.06,8.06,0,0,1,1.49-1.44c2.69-2,6.14-1.22,9.48-3.75C15.53,9.39,17.82,5.21,25,7.7V7.61c-7.19-2.56-9.52,1.71-12.65,4.08C9,14.22,5.51,13.32,2.82,15.27A11.36,11.36,0,0,0,0,18.66v.52A15,15,0,0,1,1.42,17Z" transform="translate(0 -3.3)"/><path class="cls-5" d="M1.52,17A8.09,8.09,0,0,1,3,15.56c2.7-2,6.12-1.24,9.43-3.76,3.12-2.38,5.41-6.43,12.53-4V7.7c-7.14-2.48-9.45,1.64-12.57,4-3.32,2.54-6.78,1.73-9.49,3.61A11.29,11.29,0,0,0,0,18.81v.53A15.27,15.27,0,0,1,1.52,17Z" transform="translate(0 -3.3)"/><path class="cls-5" d="M1.63,17a7.59,7.59,0,0,1,1.53-1.38c2.71-1.9,6.11-1.28,9.39-3.8,3.1-2.39,5.38-6.29,12.45-4V7.79c-7.09-2.41-9.39,1.58-12.48,4-3.3,2.54-6.73,1.82-9.46,3.64A11.51,11.51,0,0,0,0,19v.53A14.91,14.91,0,0,1,1.63,17Z" transform="translate(0 -3.3)"/><path class="cls-5" d="M24,7.85A10.63,10.63,0,0,0,18.36,8,12.56,12.56,0,0,1,24,7.85Z" transform="translate(0 -3.3)"/><path class="cls-5" d="M8.3,14a8.48,8.48,0,0,0,3.36-1.75A17.65,17.65,0,0,1,8.3,14Z" transform="translate(0 -3.3)"/><path class="cls-5" d="M18.36,8c-2.94.84-4.8,2.76-6.7,4.23.32-.22.64-.44.94-.68C14.47,10.45,16,8.84,18.36,8Z" transform="translate(0 -3.3)"/><path class="cls-5" d="M0,19.64a15.33,15.33,0,0,1,1.73-2.59,7.9,7.9,0,0,1,1.55-1.37c1.26-.43,3.11-.9,5-1.66a6.45,6.45,0,0,1-1.83.09c-2.74,1-4.72,1.7-6.47,4.7Z" transform="translate(0 -3.3)"/><path class="cls-5" d="M24,7.93a10.8,10.8,0,0,0-5.66.21A12.81,12.81,0,0,1,24,7.93Z" transform="translate(0 -3.3)"/><path class="cls-5" d="M8.36,14.09a8.44,8.44,0,0,0,3.3-1.72A17.6,17.6,0,0,1,8.36,14.09Z" transform="translate(0 -3.3)"/><path class="cls-5" d="M0,19.7A13.93,13.93,0,0,1,1.88,17a8.26,8.26,0,0,1,1.53-1.27c1.26-.4,3.07-.88,4.95-1.65a5.64,5.64,0,0,1-1.81.12C3.78,15.25,1.78,16,0,19Z" transform="translate(0 -3.3)"/><path class="cls-5" d="M18.36,8.14c-2.94.85-4.8,2.77-6.7,4.23.35-.23.7-.48,1-.74C14.52,10.49,16.05,8.93,18.36,8.14Z" transform="translate(0 -3.3)"/><path class="cls-5" d="M2,17.05A7.82,7.82,0,0,1,3.53,15.8c2.28-.66,6.28-1.71,9.23-4.13,3.15-2,5.38-5.12,12.24-3.46V8.14c-6.89-1.73-9.12,1.5-12.28,3.45-3,2.43-7,3.4-9.28,4A10.69,10.69,0,0,0,0,19.37v.47A13.07,13.07,0,0,1,2,17.05Z" transform="translate(0 -3.3)"/><path class="cls-5" d="M2.07,17.12a7.65,7.65,0,0,1,1.59-1.26c2.3-.61,6.25-1.75,9.19-4.15,3.11-2,5.34-5,12.15-3.42V8.21c-6.83-1.67-9.06,1.47-12.19,3.42-3,2.41-6.92,3.47-9.25,4A11.2,11.2,0,0,0,0,19.47V20A14.1,14.1,0,0,1,2.07,17.12Z" transform="translate(0 -3.3)"/><path class="cls-5" d="M2.17,17.16a8.74,8.74,0,0,1,1.61-1.25,24.09,24.09,0,0,0,9.14-4.16C16,9.79,18.25,6.82,25,8.37V8.29c-6.78-1.61-9,1.43-12.11,3.38a22.61,22.61,0,0,1-9.2,4A11,11,0,0,0,0,19.62v.51A14.65,14.65,0,0,1,2.17,17.16Z" transform="translate(0 -3.3)"/><path class="cls-5" d="M2.28,17.19A8,8,0,0,1,3.91,16,23.29,23.29,0,0,0,13,11.79c3.07-2,5.3-4.84,12-3.35V8.37c-6.72-1.56-8.95,1.39-12,3.34a22.16,22.16,0,0,1-9.15,4.06,11.07,11.07,0,0,0-3.82,4v.51A14.31,14.31,0,0,1,2.28,17.19Z" transform="translate(0 -3.3)"/><path class="cls-5" d="M25,8.64h0c-4.1-1.07-6.46-.79-8.46.67C18.54,8.08,21,7.94,25,8.64Z" transform="translate(0 -3.3)"/><path class="cls-5" d="M0,20.32a13.43,13.43,0,0,1,2.41-3.16c2.85-2.62,6.21-2.14,9.75-4.45,1.46-.85,2.8-2.3,4.38-3.41-3.27,2.33-6.17,5-9.61,5.3C4,15.76,1.92,16.4,0,19.73Z" transform="translate(0 -3.3)"/><path class="cls-5" d="M25,8.71h0c-4.08-1-6.42-.76-8.42.69C18.58,8.18,21,8.05,25,8.71Z" transform="translate(0 -3.3)"/><path class="cls-5" d="M0,20.51a12.87,12.87,0,0,1,2.54-3.28c2.85-2.55,6.19-2.15,9.7-4.48,1.44-.85,2.77-2.28,4.34-3.36-3.27,2.28-6.15,5-9.57,5.32C4.09,15.91,2,16.54,0,19.92Z" transform="translate(0 -3.3)"/><path class="cls-5" d="M25,8.87V8.73c-5.66-1.22-8,0-10.32,2.23C17,9.32,19.72,8.58,25,8.87Z" transform="translate(0 -3.3)"/><path class="cls-5" d="M5.05,15.48c-.36.28-.7.56-1,.84,2.12-1.43,4.73-1.27,7.64-3.11a17.28,17.28,0,0,0,3-2.25A31,31,0,0,1,5.05,15.48Z" transform="translate(0 -3.3)"/><path class="cls-5" d="M2.75,17.29A9.8,9.8,0,0,1,4.4,16.2,21.65,21.65,0,0,0,13.32,12C16.29,10,18.51,7.48,25,8.73V8.66c-6.51-1.31-8.73,1.28-11.71,3.22a20.52,20.52,0,0,1-9,4.13A11,11,0,0,0,0,20.26v.48A13.08,13.08,0,0,1,2.75,17.29Z" transform="translate(0 -3.3)"/><path class="cls-5" d="M2.86,17.33a10,10,0,0,1,1.66-1.08A21.26,21.26,0,0,0,13.4,12C16.34,10.06,18.57,7.61,25,8.8V8.74C18.55,7.49,16.32,10,13.37,11.92a20.26,20.26,0,0,1-8.93,4.15A11.08,11.08,0,0,0,0,20.39v.48A12.82,12.82,0,0,1,2.86,17.33Z" transform="translate(0 -3.3)"/><path class="cls-5" d="M3,17.37A11.38,11.38,0,0,1,4.65,16.3,20.94,20.94,0,0,0,13.48,12C16.4,10.11,18.62,7.74,25,8.88V8.81C18.6,7.62,16.38,10,13.45,12a20.13,20.13,0,0,1-8.88,4.17A11.08,11.08,0,0,0,0,20.54V21A12.94,12.94,0,0,1,3,17.37Z" transform="translate(0 -3.3)"/><path class="cls-5" d="M3.07,17.42a10,10,0,0,1,1.7-1.06c2.47-.33,6-2.09,8.78-4.28C16.45,10.16,18.67,7.88,25,9V8.88c-6.35-1.13-8.57,1.2-11.48,3.12-2.78,2.2-6.34,3.92-8.83,4.18A11.23,11.23,0,0,0,0,20.67v.45A12.77,12.77,0,0,1,3.07,17.42Z" transform="translate(0 -3.3)"/><path class="cls-5" d="M3.23,17.41a11.53,11.53,0,0,1,1.66-1c2.49-.31,6-2.14,8.74-4.3C16.51,10.21,18.72,8,25,9V9C18.7,7.88,16.48,10.14,13.6,12c-2.76,2.18-6.28,4-8.78,4.2A10.94,10.94,0,0,0,0,20.73v.43A12,12,0,0,1,3.23,17.41Z" transform="translate(0 -3.3)"/><path class="cls-5" d="M25,9.31V9.17c-5.84-1-8,.3-10.43,2.49C17,10.1,19.65,9.38,25,9.31Z" transform="translate(0 -3.3)"/><path class="cls-5" d="M4.85,16.26,4.08,17C6.33,15.44,9,15.5,12,13.51a18.14,18.14,0,0,0,2.55-1.85A54.41,54.41,0,0,1,4.85,16.26Z" transform="translate(0 -3.3)"/><path class="cls-5" d="M.32,20.79C1.39,19.56,2.65,18.35,4.08,17c-.25.15-.5.32-.76.49A12.11,12.11,0,0,0,.32,20.79Z" transform="translate(0 -3.3)"/><path class="cls-5" d="M3.44,17.5a12.42,12.42,0,0,1,1.7-1c2.51-.28,5.93-2.21,8.65-4.32,2.82-1.89,5-4,11.21-3.05V9.1c-6.19-1-8.41,1.14-11.25,3-2.72,2.12-6.16,4-8.68,4.23A11.22,11.22,0,0,0,0,21v.43A12,12,0,0,1,3.44,17.5Z" transform="translate(0 -3.3)"/><path class="cls-5" d="M3.54,17.55a11.76,11.76,0,0,1,1.73-1c2.51-.27,5.89-2.24,8.59-4.33,2.81-1.88,5-3.86,11.14-3V9.17c-6.14-.9-8.35,1.13-11.17,3-2.71,2.09-6.1,4-8.64,4.24a11.37,11.37,0,0,0-1.72.92A11.5,11.5,0,0,0,0,21.08v.44A12,12,0,0,1,3.54,17.55Z" transform="translate(0 -3.3)"/><path class="cls-5" d="M3.65,17.59a12.23,12.23,0,0,1,1.74-1c2.53-.26,5.86-2.27,8.55-4.33,2.78-1.88,5-3.79,11.06-3V9.24c-6.09-.84-8.3,1.11-11.09,3-2.7,2.07-6,4-8.59,4.25A11.43,11.43,0,0,0,0,21.21v.43A11.85,11.85,0,0,1,3.65,17.59Z" transform="translate(0 -3.3)"/><path class="cls-5" d="M3.76,17.63a13.38,13.38,0,0,1,1.75-.95c2.54-.25,5.83-2.3,8.5-4.34,2.76-1.86,5-3.7,11-3V9.31c-6-.78-8.25,1.09-11,3-2.67,2-6,4.06-8.54,4.26A11.56,11.56,0,0,0,0,21.31v.46A12,12,0,0,1,3.76,17.63Z" transform="translate(0 -3.3)"/><path class="cls-5" d="M3.87,17.67a12.85,12.85,0,0,1,1.76-.93c2.55-.25,5.81-2.35,8.46-4.36C16.82,10.54,19,8.77,25,9.44V9.38c-6-.72-8.19,1.08-10.94,2.93-2.66,2-5.94,4.08-8.49,4.27a12.77,12.77,0,0,0-1.77.9,11.51,11.51,0,0,0-3.8,4v.44A12,12,0,0,1,3.87,17.67Z" transform="translate(0 -3.3)"/><path class="cls-5" d="M25,9.74V9.57c-5.92-.66-8,.54-10.46,2.71C17,10.78,19.65,10.13,25,9.74Z" transform="translate(0 -3.3)"/><path class="cls-5" d="M0,21.94c1.16-1.32,2.54-2.7,4.13-4.33L4,17.69a11.84,11.84,0,0,0-4,4.24Z" transform="translate(0 -3.3)"/><path class="cls-5" d="M4.76,17l-.63.63c2.43-1.65,5.17-1.7,8.32-3.84a17.65,17.65,0,0,0,2.09-1.49C11,14.3,7.7,15.61,4.76,17Z" transform="translate(0 -3.3)"/><path class="cls-5" d="M25,9.81V9.69c-5.83-.42-8.12.59-10.78,2.85C16.76,11,19.41,10.23,25,9.81Z" transform="translate(0 -3.3)"/><path class="cls-5" d="M4.83,17.09l-.56.57a15.28,15.28,0,0,1,1.61-.83,21.26,21.26,0,0,0,8.34-4.29C10.87,14.44,7.67,15.75,4.83,17.09Z" transform="translate(0 -3.3)"/><path class="cls-5" d="M0,22.06c1.19-1.35,2.63-2.73,4.27-4.4a.91.91,0,0,0-.14.07A11.67,11.67,0,0,0,0,22Z" transform="translate(0 -3.3)"/><path class="cls-5" d="M4.24,17.77A17,17,0,0,1,6,16.88c2.56-.24,5.71-2.43,8.31-4.36S19.18,9.14,25,9.64V9.59c-5.83-.56-8,1.05-10.72,2.86s-5.77,4.1-8.34,4.29a11.83,11.83,0,0,0-5.94,5v.43A11.62,11.62,0,0,1,4.24,17.77Z" transform="translate(0 -3.3)"/><path class="cls-5" d="M4.34,17.81a16.53,16.53,0,0,1,1.79-.88c2.55-.24,5.66-2.46,8.25-4.37S19.23,9.26,25,9.71V9.65c-5.79-.5-8,1-10.65,2.84s-5.72,4.11-8.29,4.3a17.09,17.09,0,0,0-1.78.84A11.43,11.43,0,0,0,0,21.84v.42A11.75,11.75,0,0,1,4.34,17.81Z" transform="translate(0 -3.3)"/><path class="cls-5" d="M4.45,17.86A15,15,0,0,1,6.25,17c2.56-.24,5.63-2.49,8.2-4.37S19.28,9.38,25,9.78V9.72c-5.73-.44-7.93,1-10.57,2.82s-5.67,4.11-8.25,4.3A12.17,12.17,0,0,0,0,21.92v.46A11.84,11.84,0,0,1,4.45,17.86Z" transform="translate(0 -3.3)"/><path class="cls-5" d="M4.56,17.9A17.76,17.76,0,0,1,6.37,17c2.56-.25,5.6-2.52,8.16-4.37S19.33,9.5,25,9.84V9.79c-5.68-.39-7.88,1-10.5,2.8s-5.62,4.1-8.2,4.3A12.35,12.35,0,0,0,0,22v.45A11.86,11.86,0,0,1,4.56,17.9Z" transform="translate(0 -3.3)"/><path class="cls-5" d="M4.67,17.94c.58-.32,1.19-.6,1.82-.87,2.56-.25,5.57-2.54,8.11-4.36S19.38,9.62,25,9.91V9.86c-5.63-.34-7.82,1-10.43,2.77S9,16.74,6.42,16.94A12.47,12.47,0,0,0,0,22.14v.45A12,12,0,0,1,4.67,17.94Z" transform="translate(0 -3.3)"/><path class="cls-5" d="M25,10.23v0c-6.29.14-8.65,1.2-11.35,3.21C16.38,11.84,19,10.92,25,10.23Z" transform="translate(0 -3.3)"/><path class="cls-5" d="M0,22.72c1.19-1.3,2.62-2.68,4.24-4.39A11.94,11.94,0,0,0,0,22.67Z" transform="translate(0 -3.3)"/><path class="cls-5" d="M4.8,17.75l-.56.58c.2-.12.38-.26.59-.37,2.41.19,5.71-2.67,8.82-4.55C10.48,15,7.48,16.38,4.8,17.75Z" transform="translate(0 -3.3)"/><path class="cls-5" d="M4.89,18a19.5,19.5,0,0,1,1.84-.87c2.56-.26,5.5-2.59,8-4.36s4.74-3,10.26-2.75V10c-5.53-.23-7.72,1-10.28,2.74s-5.47,4.08-8,4.3A12.79,12.79,0,0,0,0,22.36v.44A12.08,12.08,0,0,1,4.89,18Z" transform="translate(0 -3.3)"/><path class="cls-5" d="M5,18.07c.6-.31,1.21-.59,1.86-.87,2.56-.27,5.47-2.61,8-4.35S19.53,10,25,10.11v0c-5.48-.18-7.67,1-10.21,2.72s-5.42,4.08-8,4.3A12.94,12.94,0,0,0,0,22.46v.44A12.27,12.27,0,0,1,5,18.07Z" transform="translate(0 -3.3)"/><path class="cls-5" d="M5.1,18.11c.6-.31,1.22-.59,1.87-.86,2.56-.28,5.43-2.63,7.91-4.35s4.7-2.81,10.12-2.72v0c-5.44-.14-7.62,1-10.14,2.7s-5.37,4.06-7.95,4.3A13.06,13.06,0,0,0,0,22.58V23A12.35,12.35,0,0,1,5.1,18.11Z" transform="translate(0 -3.3)"/><path class="cls-5" d="M0,23.16a13.07,13.07,0,0,1,3.2-3.72A11.57,11.57,0,0,0,0,22.58Z" transform="translate(0 -3.3)"/><path class="cls-5" d="M25,10.43v0c-4.48.06-6.68.23-8.82,1.74C18.28,10.91,20.59,10.76,25,10.43Z" transform="translate(0 -3.3)"/><path class="cls-5" d="M7.37,17c-.59.37-1.18.7-1.74,1,.48-.24.94-.48,1.46-.69,3-.63,6.18-3.08,9.09-5.14C13.12,13.93,10.35,16,7.37,17Z" transform="translate(0 -3.3)"/><path class="cls-5" d="M5.32,18.2c.6-.31,1.23-.59,1.88-.87C9.76,17,12.57,14.66,15,13s4.65-2.68,10-2.68v0c-5.34,0-7.51,1-10,2.65s-5.28,4-7.85,4.3c-.66.26-1.29.53-1.89.83A12.27,12.27,0,0,0,0,22.81v.39A12.44,12.44,0,0,1,5.32,18.2Z" transform="translate(0 -3.3)"/><path class="cls-5" d="M25,10.61v-.14c-5.79.12-7.92.9-10.65,3.15C16.94,12.19,19.55,11.65,25,10.61Z" transform="translate(0 -3.3)"/><path class="cls-5" d="M0,23.29C1.18,22,2.62,20.63,4.21,18.93A12.21,12.21,0,0,0,0,23.25Z" transform="translate(0 -3.3)"/><path class="cls-5" d="M4.74,18.36l-.53.57a13.17,13.17,0,0,1,1.26-.72c.59-.3,1.21-.57,1.85-.84a20.44,20.44,0,0,0,7-3.75C10.84,15.31,7.64,16.8,4.74,18.36Z" transform="translate(0 -3.3)"/><path class="cls-5" d="M5.58,18.25c.6-.3,1.22-.56,1.86-.84,2.55-.32,5.3-2.7,7.73-4.32s4.6-2.55,9.83-2.64v0c-5.24.06-7.41,1-9.85,2.62S10,17,7.39,17.3A13.64,13.64,0,0,0,0,22.87v.44A12.46,12.46,0,0,1,5.58,18.25Z" transform="translate(0 -3.3)"/><path class="cls-5" d="M25,10.48v0a19.42,19.42,0,0,0-4.79.47A27.07,27.07,0,0,1,25,10.48Z" transform="translate(0 -3.3)"/><path class="cls-5" d="M0,23.4a12.46,12.46,0,0,1,5.68-5.11c.61-.29,1.23-.56,1.88-.84,4.9-1.08,6.85-5.11,12.65-6.52a13.35,13.35,0,0,0-5,2.15c-2.42,1.59-5.16,4-7.72,4.26-.64.27-1.27.53-1.87.81A12.23,12.23,0,0,0,0,23Z" transform="translate(0 -3.3)"/><path class="cls-5" d="M5.79,18.33C6.4,18,7,17.77,7.67,17.49c6-1.39,7.57-7.07,17.33-7v0c-9.79-.15-11.33,5.6-17.38,6.92-.65.26-1.28.52-1.88.8A12.4,12.4,0,0,0,0,23.13v.37A12.62,12.62,0,0,1,5.79,18.33Z" transform="translate(0 -3.3)"/><path class="cls-5" d="M0,23.67A13.3,13.3,0,0,1,3.08,20.1a11.54,11.54,0,0,0-3.08,3Z" transform="translate(0 -3.3)"/><path class="cls-5" d="M25,10.81v0c-4.46.29-6.61.4-8.76,1.92C18.34,11.48,20.61,11.39,25,10.81Z" transform="translate(0 -3.3)"/><path class="cls-5" d="M7.64,17.39c-.48.31-1,.59-1.44.86.52-.24,1-.49,1.59-.72,2.87-.69,5.73-3,8.45-4.82C13.24,14.36,10.56,16.42,7.64,17.39Z" transform="translate(0 -3.3)"/><path class="cls-5" d="M19.16,11.43c1.48-.44,3.17-.35,5.69-.58C22.29,11,20.63,10.91,19.16,11.43Z" transform="translate(0 -3.3)"/><path class="cls-5" d="M0,23.69a12.87,12.87,0,0,1,6-5.28c.62-.29,1.25-.56,1.91-.84l1.15-.48a11.83,11.83,0,0,1-1.2.38A14.59,14.59,0,0,0,0,23.31Z" transform="translate(0 -3.3)"/><path class="cls-5" d="M19.16,11.43C16.09,12.25,14,14.54,11.4,16a45.44,45.44,0,0,0,4.36-2.78A13.81,13.81,0,0,1,19.16,11.43Z" transform="translate(0 -3.3)"/><path class="cls-5" d="M19.22,11.51a38,38,0,0,1,5.63-.59C22.32,11.08,20.68,11,19.22,11.51Z" transform="translate(0 -3.3)"/><path class="cls-5" d="M0,23.84a12.58,12.58,0,0,1,6.15-5.41c.62-.29,1.25-.56,1.87-.82.4-.17.81-.33,1.21-.51A10.62,10.62,0,0,1,8,17.5c-2.78,1.18-5.51,2.07-8,6Z" transform="translate(0 -3.3)"/><path class="cls-5" d="M19.22,11.51c-3.08.8-5.13,3.07-7.76,4.5a46.81,46.81,0,0,0,4.39-2.8A14,14,0,0,1,19.22,11.51Z" transform="translate(0 -3.3)"/><path class="cls-5" d="M19.27,11.59c-3.07.79-5.12,3-7.74,4.47a49.35,49.35,0,0,0,4.41-2.81A13.64,13.64,0,0,1,19.27,11.59Z" transform="translate(0 -3.3)"/><path class="cls-5" d="M19.27,11.59a40.17,40.17,0,0,1,5.58-.6C22.35,11.16,20.72,11.1,19.27,11.59Z" transform="translate(0 -3.3)"/><path class="cls-5" d="M0,23.94a12.88,12.88,0,0,1,6.25-5.48c.63-.29,1.26-.55,1.89-.82.42-.17.84-.34,1.25-.53a9.41,9.41,0,0,1-1.3.43C5.28,18.74,2.51,19.61,0,23.59Z" transform="translate(0 -3.3)"/><path class="cls-5" d="M19.33,11.67a44.33,44.33,0,0,1,5.53-.61C22.39,11.25,20.77,11.19,19.33,11.67Z" transform="translate(0 -3.3)"/><path class="cls-5" d="M19.33,11.67c-3.06.78-5.11,3-7.71,4.43,1.51-.82,2.92-1.82,4.41-2.81A13.17,13.17,0,0,1,19.33,11.67Z" transform="translate(0 -3.3)"/><path class="cls-5" d="M0,24A13,13,0,0,1,6.36,18.5c.63-.29,1.26-.55,1.89-.83.43-.17.87-.35,1.3-.55a11.21,11.21,0,0,1-1.34.46C5.35,18.8,2.54,19.67,0,23.69Z" transform="translate(0 -3.3)"/><path class="cls-6" d="M1.06,18.54a10.29,10.29,0,0,1,1.36-1.95C5,13.72,8.5,14.71,12.06,12.53S17.57,7,25,9V8.88c-7.45-2-9.48,1.38-13,3.59s-7.11,1.09-9.69,3.91A15.11,15.11,0,0,0,0,20.51V21A23.18,23.18,0,0,1,1.06,18.54Z" transform="translate(0 -3.3)"/><path class="cls-6" d="M0,21a22.48,22.48,0,0,1,1.11-2.54c2.17-4.17,4.67-3.51,8.87-5,1.71-.46,3.35-1.8,5.1-3.12a25.78,25.78,0,0,1-4,2.51c-3.62,1.64-7,1.15-9,3.94a14,14,0,0,0-2,3.65Z" transform="translate(0 -3.3)"/><path class="cls-6" d="M24.39,9.18c-4.8-1.1-7.18-.45-9.31,1.21C17.21,8.87,19.62,8.3,24.39,9.18Z" transform="translate(0 -3.3)"/><path class="cls-6" d="M12.84,11.91C15,10.74,16.8,9.17,20,8.79,16.58,9.11,14.79,10.62,12.84,11.91Z" transform="translate(0 -3.3)"/><path class="cls-6" d="M0,21a20.25,20.25,0,0,1,1.19-2.63A9.26,9.26,0,0,1,2.6,16.47c1.69-1.28,5.24-1.92,8.2-3.42C7.32,14.55,4,14.19,2.06,16.84A13.64,13.64,0,0,0,0,20.51Z" transform="translate(0 -3.3)"/><path class="cls-6" d="M24.3,9a15.65,15.65,0,0,0-3.74-.22A18.78,18.78,0,0,1,24.3,9Z" transform="translate(0 -3.3)"/><path class="cls-6" d="M1.29,18.17a8.74,8.74,0,0,1,1.4-1.76c2-1.37,6.44-2.05,9.57-4.15,3.38-1.64,5.6-4.53,12.74-3.12V9.08c-7.17-1.47-9.38,1.49-12.78,3.12-3.14,2.09-7.62,2.69-9.62,4A13.17,13.17,0,0,0,0,20.43v.47A18.85,18.85,0,0,1,1.29,18.17Z" transform="translate(0 -3.3)"/><path class="cls-6" d="M1.36,18.07a8.39,8.39,0,0,1,1.42-1.71c2-1.26,6.44-2,9.55-4.09C15.7,10.63,17.9,7.8,25,9.17V9.11c-7.12-1.43-9.33,1.46-12.71,3.1-3.12,2.08-7.55,2.74-9.59,4A12.81,12.81,0,0,0,0,20.4v.48A18.42,18.42,0,0,1,1.36,18.07Z" transform="translate(0 -3.3)"/><path class="cls-6" d="M1.4,18a8.3,8.3,0,0,1,1.47-1.7c2.08-1.16,6.44-2,9.53-4C15.75,10.64,18,7.87,25,9.21V9.15c-7.07-1.4-9.28,1.43-12.63,3.07-3.1,2.07-7.5,2.79-9.58,3.9A12.59,12.59,0,0,0,0,20.37v.49A19.42,19.42,0,0,1,1.4,18Z" transform="translate(0 -3.3)"/><path class="cls-6" d="M1.47,17.92A7.81,7.81,0,0,1,3,16.26c2.12-1.05,6.44-1.91,9.52-4C15.79,10.65,18,7.94,25,9.25V9.19c-7-1.37-9.23,1.4-12.56,3-3.08,2-7.44,2.84-9.56,3.84A12.24,12.24,0,0,0,0,20.33v.5A17.9,17.9,0,0,1,1.47,17.92Z" transform="translate(0 -3.3)"/><path class="cls-6" d="M1.58,17.76a7.74,7.74,0,0,1,1.47-1.54c2.16-1,6.44-1.88,9.5-3.92C15.84,10.65,18,8,25,9.28v0c-7-1.34-9.18,1.37-12.49,3C9.44,14.28,5.13,15.12,3,16a11.41,11.41,0,0,0-3,4.23v.48A16.82,16.82,0,0,1,1.58,17.76Z" transform="translate(0 -3.3)"/><path class="cls-6" d="M1.64,17.68a7.6,7.6,0,0,1,1.5-1.5c2.19-.87,6.44-1.85,9.48-3.87,3.27-1.65,5.47-4.23,12.38-3V9.27c-6.93-1.31-9.13,1.33-12.41,3-3.05,2-7.33,2.93-9.53,3.74A11.3,11.3,0,0,0,0,20.23v.48A16.36,16.36,0,0,1,1.64,17.68Z" transform="translate(0 -3.3)"/><path class="cls-6" d="M1.71,17.6a7.82,7.82,0,0,1,1.53-1.47c2.22-.77,6.43-1.8,9.45-3.81,3.25-1.65,5.45-4.17,12.31-3V9.3c-6.89-1.27-9.08,1.31-12.34,3-3,2-7.27,3-9.5,3.7A10.84,10.84,0,0,0,0,20.19v.47A15.51,15.51,0,0,1,1.71,17.6Z" transform="translate(0 -3.3)"/><path class="cls-6" d="M19.35,9.3c-3.5.59-5.58,2.39-7.76,3.74.4-.23.8-.46,1.17-.71C14.87,11.25,16.54,9.83,19.35,9.3Z" transform="translate(0 -3.3)"/><path class="cls-6" d="M0,20.63a14.73,14.73,0,0,1,1.78-3.11A7.08,7.08,0,0,1,3.33,16.1c1.35-.42,3.37-1,5.42-1.77a7.65,7.65,0,0,1-2.14.27c-2.84.89-4.9,1.62-6.61,5.32Z" transform="translate(0 -3.3)"/><path class="cls-6" d="M0,20.52a13.3,13.3,0,0,1,1.9-3.14,7.42,7.42,0,0,1,1.52-1.32,49.78,49.78,0,0,0,5.38-1.7,8,8,0,0,1-2.14.28c-2.85.89-4.93,1.6-6.66,5.3Z" transform="translate(0 -3.3)"/><path class="cls-6" d="M19.35,9.35c-3.47.6-5.54,2.37-7.71,3.7.41-.22.81-.46,1.2-.71C14.92,11.26,16.58,9.88,19.35,9.35Z" transform="translate(0 -3.3)"/><path class="cls-6" d="M2,17.31A6.6,6.6,0,0,1,3.52,16a31.34,31.34,0,0,0,9.39-3.68c3.17-1.65,5.37-4,12.09-2.87V9.42c-6.74-1.17-8.94,1.22-12.12,2.87a29.46,29.46,0,0,1-9.43,3.57A9.72,9.72,0,0,0,0,20.08v.4A12.6,12.6,0,0,1,2,17.31Z" transform="translate(0 -3.3)"/><path class="cls-6" d="M2,17.27A7.39,7.39,0,0,1,3.61,16,28.78,28.78,0,0,0,13,12.35c3.15-1.65,5.34-3.93,12-2.85V9.45c-6.7-1.14-8.89,1.19-12.06,2.84a27.4,27.4,0,0,1-9.4,3.54A9.43,9.43,0,0,0,0,20v.42A12.78,12.78,0,0,1,2,17.27Z" transform="translate(0 -3.3)"/><path class="cls-6" d="M2.09,17.2A7.14,7.14,0,0,1,3.71,16a27.16,27.16,0,0,0,9.34-3.6c3.13-1.65,5.32-3.87,12-2.82v0c-6.65-1.1-8.84,1.16-12,2.81a26,26,0,0,1-9.38,3.5A9.29,9.29,0,0,0,0,20v.42A12.67,12.67,0,0,1,2.09,17.2Z" transform="translate(0 -3.3)"/><path class="cls-6" d="M2.16,17.14a7,7,0,0,1,1.64-1.2,26,26,0,0,0,9.32-3.57c3.11-1.65,5.29-3.8,11.88-2.79V9.53c-6.6-1.07-8.79,1.13-11.91,2.78a24.72,24.72,0,0,1-9.36,3.48A9.07,9.07,0,0,0,0,19.94v.43A11.89,11.89,0,0,1,2.16,17.14Z" transform="translate(0 -3.3)"/><path class="cls-6" d="M12.22,12.86A22.78,22.78,0,0,1,8.7,14.52a12.92,12.92,0,0,0,3.93-1.86Z" transform="translate(0 -3.3)"/><path class="cls-6" d="M25,9.65V9.58c-6.54-1-9.51,1.26-12.37,3.08C15.85,11.07,18.18,8.78,25,9.65Z" transform="translate(0 -3.3)"/><path class="cls-6" d="M0,20.28A10.81,10.81,0,0,1,2.26,17a51.17,51.17,0,0,1,6.44-2.5,8.81,8.81,0,0,1-1.76.23C4,15.6,1.83,16.11,0,19.78Z" transform="translate(0 -3.3)"/><path class="cls-6" d="M12.29,12.88a21.75,21.75,0,0,1-3.51,1.65,13,13,0,0,0,3.86-1.82Z" transform="translate(0 -3.3)"/><path class="cls-6" d="M0,19.79v.46A10.82,10.82,0,0,1,2.35,17c1.49-.81,4-1.5,6.43-2.45A8.22,8.22,0,0,1,7,14.78C4.05,15.65,1.85,16.12,0,19.79Z" transform="translate(0 -3.3)"/><path class="cls-6" d="M25,9.69V9.62c-6.54-.93-9.5,1.27-12.36,3.09C15.87,11.12,18.18,8.84,25,9.69Z" transform="translate(0 -3.3)"/><path class="cls-6" d="M25,9.93V9.82c-5.64-.7-7.8-.21-10.24,1.78C17.18,10.12,19.7,10,25,9.93Z" transform="translate(0 -3.3)"/><path class="cls-6" d="M5,15.32c-.39.23-.76.46-1.12.71,2.18-1.24,4.92-.9,7.86-2.52a18.51,18.51,0,0,0,3.07-1.91A28.9,28.9,0,0,1,5,15.32Z" transform="translate(0 -3.3)"/><path class="cls-6" d="M2.51,16.85a7.1,7.1,0,0,1,1.68-1c2.52-.1,6.34-1.61,9.2-3.45,3-1.63,5.21-3.54,11.61-2.67V9.68c-6.42-.92-8.6,1-11.63,2.66-2.88,1.84-6.72,3.32-9.25,3.37a8.26,8.26,0,0,0-4.12,4v.46A9.89,9.89,0,0,1,2.51,16.85Z" transform="translate(0 -3.3)"/><path class="cls-6" d="M2.58,16.8a7.14,7.14,0,0,1,1.71-1c2.54,0,6.32-1.6,9.17-3.42,3-1.63,5.19-3.48,11.54-2.64v0c-6.37-.89-8.55,1-11.57,2.63-2.86,1.82-6.65,3.34-9.21,3.33a8.28,8.28,0,0,0-4.22,4v.46A9.89,9.89,0,0,1,2.58,16.8Z" transform="translate(0 -3.3)"/><path class="cls-6" d="M2.66,16.74a7.78,7.78,0,0,1,1.72-.93c2.57,0,6.31-1.6,9.15-3.4,3-1.62,5.16-3.41,11.47-2.6V9.76c-6.32-.86-8.51,1-11.5,2.59-2.84,1.81-6.6,3.37-9.18,3.33A8.1,8.1,0,0,0,0,19.7v.44A9.67,9.67,0,0,1,2.66,16.74Z" transform="translate(0 -3.3)"/><path class="cls-6" d="M2.73,16.7a7.65,7.65,0,0,1,1.75-.9c2.6,0,6.3-1.6,9.12-3.38,3-1.61,5.14-3.35,11.4-2.57v0c-6.28-.82-8.46.95-11.43,2.56-2.83,1.79-6.55,3.39-9.16,3.3a8.06,8.06,0,0,0-4.41,4v.43A9.37,9.37,0,0,1,2.73,16.7Z" transform="translate(0 -3.3)"/><path class="cls-6" d="M2.86,16.61a8.41,8.41,0,0,1,1.71-.83c2.62.09,6.29-1.59,9.1-3.35,2.94-1.6,5.12-3.29,11.33-2.54V9.84c-6.23-.79-8.41.92-11.36,2.53-2.81,1.77-6.5,3.41-9.13,3.28A7.8,7.8,0,0,0,0,19.55V20A8.65,8.65,0,0,1,2.86,16.61Z" transform="translate(0 -3.3)"/><path class="cls-6" d="M25,10.17v-.11c-5.79-.58-7.89,0-10.39,2C17.08,10.58,19.62,10.44,25,10.17Z" transform="translate(0 -3.3)"/><path class="cls-6" d="M4.57,15.59c-.29.18-.57.37-.84.56,2.32-1.21,5.19-.83,8.26-2.55A18.8,18.8,0,0,0,14.61,12,35.69,35.69,0,0,1,4.57,15.59Z" transform="translate(0 -3.3)"/><path class="cls-6" d="M.19,19.56a14.36,14.36,0,0,1,3.54-3.41c-.27.13-.54.27-.81.43A8.76,8.76,0,0,0,.19,19.56Z" transform="translate(0 -3.3)"/><path class="cls-6" d="M3,16.53a8.39,8.39,0,0,1,1.76-.77c2.66.16,6.25-1.59,9-3.31S18.88,9.29,25,10v0c-6.14-.72-8.32.88-11.23,2.47s-6.39,3.44-9.06,3.24A7.87,7.87,0,0,0,0,19.51v.33A8.61,8.61,0,0,1,3,16.53Z" transform="translate(0 -3.3)"/><path class="cls-6" d="M3.08,16.49a8.57,8.57,0,0,1,1.79-.75c2.68.2,6.23-1.58,9-3.28S18.93,9.36,25,10v0c-6.09-.69-8.27.85-11.16,2.43s-6.34,3.47-9,3.23A7.79,7.79,0,0,0,0,19.47v.34A8.47,8.47,0,0,1,3.08,16.49Z" transform="translate(0 -3.3)"/><path class="cls-6" d="M3.16,16.45A8.62,8.62,0,0,1,5,15.74c2.7.22,6.21-1.6,9-3.28S19,9.43,25,10v0c-6-.64-8.23.84-11.09,2.41s-6.29,3.48-9,3.21A7.82,7.82,0,0,0,0,19.43v.34A8.34,8.34,0,0,1,3.16,16.45Z" transform="translate(0 -3.3)"/><path class="cls-6" d="M3.24,16.42a8.53,8.53,0,0,1,1.83-.69c2.71.24,6.19-1.6,8.93-3.26s5-3,11-2.39V10c-6-.61-8.18.82-11,2.38s-6.23,3.49-9,3.2a7.72,7.72,0,0,0-5,3.77v.35A8.13,8.13,0,0,1,3.24,16.42Z" transform="translate(0 -3.3)"/><path class="cls-6" d="M3.32,16.38a10.14,10.14,0,0,1,1.85-.66c2.73.27,6.17-1.6,8.9-3.24s5-2.9,10.93-2.36v0c-5.95-.58-8.13.8-11,2.35s-6.19,3.5-8.93,3.18A7.78,7.78,0,0,0,0,19.35v.33A8.06,8.06,0,0,1,3.32,16.38Z" transform="translate(0 -3.3)"/><path class="cls-6" d="M25,10.45h0c-6.32-.12-8.72.56-11.52,2.4C16.27,11.3,18.87,10.72,25,10.45Z" transform="translate(0 -3.3)"/><path class="cls-6" d="M0,19.69a14.81,14.81,0,0,1,3.48-3.35l-.06,0A8,8,0,0,0,0,19.64Z" transform="translate(0 -3.3)"/><path class="cls-6" d="M4.29,15.79c-.28.18-.55.36-.81.55,2.48.08,6.58-1.6,10-3.5A42.67,42.67,0,0,1,4.29,15.79Z" transform="translate(0 -3.3)"/><path class="cls-6" d="M25,10.48h0c-6.29-.09-8.68.55-11.46,2.39C16.32,11.33,18.9,10.78,25,10.48Z" transform="translate(0 -3.3)"/><path class="cls-6" d="M4.33,15.8l-.77.52c2.49.13,6.57-1.56,10-3.46A40.67,40.67,0,0,1,4.33,15.8Z" transform="translate(0 -3.3)"/><path class="cls-6" d="M0,19.67a15.19,15.19,0,0,1,3.56-3.35h0A7.83,7.83,0,0,0,0,19.62Z" transform="translate(0 -3.3)"/><path class="cls-6" d="M3.6,16.26a12,12,0,0,1,1.87-.56c2.77.33,6.11-1.62,8.79-3.2s5-2.71,10.74-2.27v0c-5.81-.48-8,.73-10.76,2.26S8.2,16,5.42,15.59A7.7,7.7,0,0,0,0,19.18v.3A7.6,7.6,0,0,1,3.6,16.26Z" transform="translate(0 -3.3)"/><path class="cls-6" d="M3.68,16.23a13.8,13.8,0,0,1,1.89-.54c2.78.35,6.09-1.63,8.76-3.18S19.25,9.86,25,10.27v0c-5.76-.45-7.95.71-10.7,2.23s-6,3.51-8.78,3.12a12.9,12.9,0,0,0-1.88.51A7.22,7.22,0,0,0,0,19.14v.3A7.43,7.43,0,0,1,3.68,16.23Z" transform="translate(0 -3.3)"/><path class="cls-6" d="M3.76,16.21a12.43,12.43,0,0,1,1.91-.52c2.79.36,6.07-1.64,8.72-3.17S19.3,9.93,25,10.31v0c-5.72-.42-7.9.69-10.63,2.19S8.43,16,5.62,15.58A7.87,7.87,0,0,0,0,19.07v.32A7.37,7.37,0,0,1,3.76,16.21Z" transform="translate(0 -3.3)"/><path class="cls-6" d="M3.84,16.18a15.54,15.54,0,0,1,1.93-.5c2.81.37,6-1.64,8.69-3.15S19.34,10,25,10.35v0c-5.67-.39-7.86.67-10.57,2.16S8.54,16,5.72,15.58A7.9,7.9,0,0,0,0,19v.31A7.31,7.31,0,0,1,3.84,16.18Z" transform="translate(0 -3.3)"/><path class="cls-6" d="M3.93,16.16a15.72,15.72,0,0,1,1.94-.48c2.82.38,6-1.65,8.65-3.15S19.39,10.07,25,10.39v0c-5.62-.35-7.81.66-10.5,2.13S8.65,16,5.82,15.58A7.92,7.92,0,0,0,0,19v.31A7.23,7.23,0,0,1,3.93,16.16Z" transform="translate(0 -3.3)"/><path class="cls-6" d="M25,10.69v0c-6.33.06-8.64.58-11.46,2.46C16.35,11.62,18.93,11.23,25,10.69Z" transform="translate(0 -3.3)"/><path class="cls-6" d="M4.11,15.94q-.41.24-.78.51a6.73,6.73,0,0,1,.73-.32c2.49.35,6.28-1.21,9.48-3A45.73,45.73,0,0,1,4.11,15.94Z" transform="translate(0 -3.3)"/><path class="cls-6" d="M0,19.43a15.22,15.22,0,0,1,3.33-3A7.39,7.39,0,0,0,0,19.24Z" transform="translate(0 -3.3)"/><path class="cls-6" d="M4.09,16.12a16.43,16.43,0,0,1,2-.44c2.84.39,6-1.68,8.58-3.13S19.48,10.21,25,10.47v-.05c-5.53-.28-7.72.63-10.37,2.08S8.87,16,6,15.58a8.1,8.1,0,0,0-6,3.33v.29A7.14,7.14,0,0,1,4.09,16.12Z" transform="translate(0 -3.3)"/><path class="cls-6" d="M4.17,16.1a16.8,16.8,0,0,1,2-.42c2.84.39,5.95-1.69,8.54-3.12S19.53,10.28,25,10.5v0c-5.48-.25-7.67.62-10.31,2S9,16,6.12,15.58A8.17,8.17,0,0,0,0,18.86v.3A7.1,7.1,0,0,1,4.17,16.1Z" transform="translate(0 -3.3)"/><path class="cls-6" d="M4.25,16.07c.64-.17,1.31-.28,2-.4,2.85.4,5.92-1.7,8.51-3.1s4.8-2.22,10.22-2v0c-5.44-.22-7.62.6-10.24,2S9.09,16,6.23,15.58A8.28,8.28,0,0,0,0,18.8v.3A7.18,7.18,0,0,1,4.25,16.07Z" transform="translate(0 -3.3)"/><path class="cls-6" d="M25,10.79v0c-4.43,0-6.62-.2-8.82,1.09C18.33,10.79,20.61,11,25,10.79Z" transform="translate(0 -3.3)"/><path class="cls-6" d="M6.75,15.45,4.55,16c.59-.14,1.18-.26,1.82-.36,3.4.07,6.8-2,9.81-3.81C13,13.43,10,15.29,6.75,15.45Z" transform="translate(0 -3.3)"/><path class="cls-6" d="M4.42,16.05a20.73,20.73,0,0,1,2.05-.38c2.86.39,5.87-1.72,8.43-3.08s4.77-2.11,10.1-2v0c-5.35-.16-7.53.57-10.12,2S9.3,16,6.43,15.58c-2.62.28-4.74,1-6.43,3.14V19A7.08,7.08,0,0,1,4.42,16.05Z" transform="translate(0 -3.3)"/><path class="cls-6" d="M0,19.15a14.71,14.71,0,0,1,3.12-2.66A6.94,6.94,0,0,0,0,18.92Z" transform="translate(0 -3.3)"/><path class="cls-6" d="M25,10.89v-.14c-5.83,0-8,.28-10.84,2.36C16.84,11.72,19.37,11.7,25,10.89Z" transform="translate(0 -3.3)"/><path class="cls-6" d="M3.86,16c-.26.15-.49.3-.74.46A10,10,0,0,1,4.55,16c.64-.14,1.32-.24,2-.34a14.91,14.91,0,0,0,7.59-2.56A46.78,46.78,0,0,1,3.86,16Z" transform="translate(0 -3.3)"/><path class="cls-6" d="M4.64,16c.64-.14,1.33-.23,2-.33,2.87.39,5.82-1.75,8.36-3.06s4.73-2,10-1.91v0c-5.25-.11-7.44.54-10,1.9s-5.5,3.45-8.38,3c-2.7.24-4.91.84-6.63,3v.31A7,7,0,0,1,4.64,16Z" transform="translate(0 -3.3)"/><path class="cls-6" d="M4.72,16c.65-.13,1.34-.22,2.06-.32,2.86.38,5.79-1.76,8.31-3.05S19.8,10.69,25,10.74v0c-5.21-.08-7.4.53-9.93,1.87s-5.46,3.43-8.33,3c-2.75.23-5,.8-6.74,2.9v.32A7,7,0,0,1,4.72,16Z" transform="translate(0 -3.3)"/><path class="cls-6" d="M4.81,16c.65-.12,1.35-.21,2.07-.31,6.66-.18,8.32-5.62,18.12-5v0c-9.82-.7-11.48,4.82-18.16,4.93-.72.1-1.42.17-2.07.29A6.92,6.92,0,0,0,0,18.5v.24A7.11,7.11,0,0,1,4.81,16Z" transform="translate(0 -3.3)"/><path class="cls-6" d="M25,11h0c-4.36.12-6.52-.15-8.71,1.11C18.42,11.06,20.68,11.35,25,11Z" transform="translate(0 -3.3)"/><path class="cls-6" d="M6.88,15.53c-.58.15-1.15.27-1.7.4.58-.1,1.17-.18,1.8-.27,3.31.05,6.43-1.95,9.31-3.56C13.16,13.57,10.16,15.41,6.88,15.53Z" transform="translate(0 -3.3)"/><path class="cls-6" d="M19.05,11.19c-2.92.45-4.94,2.39-7.55,3.43a31.09,31.09,0,0,0,4.07-2.06A12.76,12.76,0,0,1,19.05,11.19Z" transform="translate(0 -3.3)"/><path class="cls-6" d="M25,11h0c-2.69.09-4.4-.21-5.95.18C20.6,10.88,22.34,11.19,25,11Z" transform="translate(0 -3.3)"/><path class="cls-6" d="M0,18.65A7.18,7.18,0,0,1,5,16c.67-.11,1.38-.19,2.11-.29.37,0,.75-.1,1.12-.16A9.17,9.17,0,0,1,7,15.58c-2.88.23-5.23.69-7,2.76Z" transform="translate(0 -3.3)"/><path class="cls-6" d="M19.1,11.23c-2.91.43-4.92,2.33-7.51,3.38a32.86,32.86,0,0,0,4.06-2A12.63,12.63,0,0,1,19.1,11.23Z" transform="translate(0 -3.3)"/><path class="cls-6" d="M25,11h0c-2.66.11-4.36-.19-5.9.19C20.64,10.93,22.37,11.24,25,11Z" transform="translate(0 -3.3)"/><path class="cls-6" d="M0,18.62a7,7,0,0,1,5.1-2.69c.68-.1,1.38-.18,2.08-.27.37,0,.75-.09,1.12-.16a11.55,11.55,0,0,1-1.16.09c-2.63.31-5,.27-7.14,2.81Z" transform="translate(0 -3.3)"/><path class="cls-6" d="M19.15,11.27c-2.89.41-4.9,2.27-7.46,3.33a36.41,36.41,0,0,0,4-2A12.49,12.49,0,0,1,19.15,11.27Z" transform="translate(0 -3.3)"/><path class="cls-6" d="M25,11.09h0c-2.63.11-4.32-.18-5.85.18C20.68,11,22.4,11.28,25,11.09Z" transform="translate(0 -3.3)"/><path class="cls-6" d="M0,18.58a7,7,0,0,1,5.19-2.66c.68-.1,1.39-.17,2.09-.26.44-.05.88-.1,1.32-.19a10.56,10.56,0,0,1-1.36.12c-2.67.31-5.12.23-7.24,2.76Z" transform="translate(0 -3.3)"/><path class="cls-6" d="M25,11.12h0c-2.6.13-4.28-.16-5.79.19C20.72,11,22.43,11.33,25,11.12Z" transform="translate(0 -3.3)"/><path class="cls-6" d="M19.21,11.31c-3.13.43-5.27,2.56-8.12,3.55a33.27,33.27,0,0,0,4.73-2.3A12.11,12.11,0,0,1,19.21,11.31Z" transform="translate(0 -3.3)"/><path class="cls-6" d="M0,18.53a7,7,0,0,1,5.27-2.62l2.11-.25c.53-.06,1.07-.13,1.59-.23a11.38,11.38,0,0,1-1.63.16c-2.7.32-5.2.19-7.34,2.7Z" transform="translate(0 -3.3)"/><path class="cls-7" d="M0,8.19c1-.52,2.4.66,4,1.46,2.7,1.87,5.93,2.52,8,1.69,3.24-1.27,6.17-1,9.57.87-3.33-1.91-6-2.47-9.69-1l-.11,0c-2,.74-5.13.16-7.74-1.73C2.43,8.73,1.06,7.5,0,8.07Z" transform="translate(0 -3.3)"/><path class="cls-7" d="M4.27,9.85a9,9,0,0,0,7.86,1.42c4.2-2.14,7.76.49,12.87,2.3v-.13C19.87,11.7,16.32,9,12.13,11.2c-2,.78-5.2.45-7.93-1.51C2.56,8.83,1.09,7.41,0,7.92V8.3C1.09,7.61,2.6,9,4.27,9.85Z" transform="translate(0 -3.3)"/><path class="cls-7" d="M4.13,9.78c2.59,1.69,5.67,2.35,7.74,1.55,4.25-2.15,7.7.23,13.13,2.24v-.13c-5.45-1.93-8.89-4.39-13.13-2.19-2.08.83-5.2.16-7.82-1.64C2.44,8.77,1,7.52,0,8.07v.38C1,7.73,2.48,9,4.13,9.78Z" transform="translate(0 -3.3)"/><path class="cls-7" d="M4.51,10a9,9,0,0,0,7.61,1.24c4.13-2.12,7.49.48,12.88,2.34v-.11C19.59,11.67,16.24,9,12.11,11.17A8.82,8.82,0,0,1,4.43,9.85C2.68,9,1.09,7.44,0,8.19v.4C1.09,7.63,2.72,9.14,4.51,10Z" transform="translate(0 -3.3)"/><path class="cls-7" d="M6,10.76c2.88,1.76,5.58.37,7.4.12,3.73-1.74,7,1.65,11.59,2.84v-.11c-4.56-1.16-7.87-4.6-11.59-2.82C11.58,11,8.85,12.5,6,10.64,3.75,9.8,1.46,7,0,8.53V9C1.45,7.17,3.79,9.94,6,10.76Z" transform="translate(0 -3.3)"/><path class="cls-7" d="M6.27,10.87c2.85,1.65,5.44.16,7.26,0,3.67-1.68,6.9,1.74,11.47,2.92v-.11C20.4,12.48,17.17,9,13.5,10.75c-1.82.21-4.45,1.73-7.31,0C3.92,9.94,1.49,7,0,8.74v.47C1.47,7.14,4,10.08,6.27,10.87Z" transform="translate(0 -3.3)"/><path class="cls-7" d="M6.52,11c2.81,1.52,5.3,0,7.11-.19,3.61-1.62,6.76,1.81,11.37,3v-.1c-4.65-1.18-7.79-4.64-11.43-3-1.81.18-4.33,1.74-7.15.14C4.07,10.07,1.5,7,0,9v.46C1.49,7.12,4.13,10.22,6.52,11Z" transform="translate(0 -3.3)"/><path class="cls-7" d="M6.74,11.06c2.77,1.41,5.16-.17,7-.31,3.58-1.58,6.65,1.87,11.3,3.07v-.1c-4.69-1.2-7.75-4.67-11.36-3-1.79.15-4.22,1.75-7,.27C4.22,10.2,1.51,7,0,9.26v.49C1.5,7.13,4.27,10.35,6.74,11.06Z" transform="translate(0 -3.3)"/><path class="cls-7" d="M7,11.14c2.72,1.29,5-.31,6.81-.43,3.54-1.53,6.53,1.92,11.22,3.15v-.09c-4.68-1.19-7.55-4.65-11-3.22-1.83.06-4.13,1.84-6.9.54-2.53-.64-5.47-4-7-1.56V10C1.5,7.14,4.42,10.47,7,11.14Z" transform="translate(0 -3.3)"/><path class="cls-7" d="M25,13.85h0c-2.85-.93-4.76-2.53-6.74-3.05C20.21,11.52,22.23,13.22,25,13.85Z" transform="translate(0 -3.3)"/><path class="cls-7" d="M0,10.26l0-.08c1.44-2.41,3.16-.68,5,.09C3.07,9.38,1.27,7.5,0,9.76Z" transform="translate(0 -3.3)"/><path class="cls-7" d="M18.26,10.79a6.4,6.4,0,0,0-4-.33c-1.92.32-4,1.55-6.8.76C12,12.34,14.89,9.46,18.26,10.79Z" transform="translate(0 -3.3)"/><path class="cls-7" d="M.25,10.05c4.53-1.24,10.3,3.34,13.73,1s6.13,1.17,11,2.76v-.1c-4.92-1.58-7.63-5.12-11.1-3.05-3.41,2.68-9.25-2-13.77-.94L0,10v.52C.08,10.37.16,10.2.25,10.05Z" transform="translate(0 -3.3)"/><path class="cls-7" d="M24.91,13.92c-2.72-.9-4.55-2.46-6.41-3.07C20.32,11.61,22.21,13.24,24.91,13.92Z" transform="translate(0 -3.3)"/><path class="cls-7" d="M18.5,10.85a6.25,6.25,0,0,0-3.73-.57c-1.95.16-4,1.63-6.87,1.06C12.33,12,15.11,9.27,18.5,10.85Z" transform="translate(0 -3.3)"/><path class="cls-7" d="M0,10.79A6.47,6.47,0,0,1,.46,10c1.86-1.94,4.18.65,6.36,1.1C4.45,10.54,2,7.56.34,9.66a6.18,6.18,0,0,0-.34.59Z" transform="translate(0 -3.3)"/><path class="cls-7" d="M.68,9.88C3,8.58,6.31,11.41,8.83,11.5c2.63.6,4.44-1.54,6.19-1.19,3.23-.79,5.88,2.78,10,3.75V14c-4.12-1-6.77-4.57-10-3.73-1.76-.34-3.57,1.84-6.22,1.21C6.21,11.3,2.84,8.36.57,9.59A5.49,5.49,0,0,0,0,10.5V11A5.91,5.91,0,0,1,.68,9.88Z" transform="translate(0 -3.3)"/><path class="cls-7" d="M.91,9.84C3.27,8.93,6.52,11.46,9,11.49c2.56.48,4.31-1.54,6-1.25,3.21-.81,5.75,2.78,10,3.83v-.15c-4.55-1.24-6.83-4.38-9.69-3.79-1.88-.48-3.67,1.8-6.34,1.29-2.55,0-6-2.8-8.18-1.86A4.7,4.7,0,0,0,0,10.71v.5A5.51,5.51,0,0,1,.91,9.84Z" transform="translate(0 -3.3)"/><path class="cls-7" d="M1.14,9.82c2.42-.57,5.6,1.7,8,1.68,2.49.37,4.19-1.56,5.9-1.28,3.19-.8,5.66,2.78,10,3.88V14c-4.33-1.09-6.8-4.71-10-3.87-1.72-.27-3.42,1.71-5.94,1.31C6.64,11.43,3.43,9,1,9.54a4.47,4.47,0,0,0-1,1.37v.54A5.09,5.09,0,0,1,1.14,9.82Z" transform="translate(0 -3.3)"/><path class="cls-7" d="M15.68,10.1c3.09-.38,5.48,3.11,9.32,4.06V14c-3.93-1.06-6.26-4.12-9.14-4-1.42-.53-2.72.64-4.39,1.16A14.55,14.55,0,0,0,15.68,10.1Z" transform="translate(0 -3.3)"/><path class="cls-7" d="M11.47,11.17a19.45,19.45,0,0,1-3.53.07,5.43,5.43,0,0,0,1.76.16A4.66,4.66,0,0,0,11.47,11.17Z" transform="translate(0 -3.3)"/><path class="cls-7" d="M0,11.65A4.71,4.71,0,0,1,1.37,9.83a24.15,24.15,0,0,0,6.57,1.41c-2.2-.47-4.72-1.8-6.69-1.68A4.11,4.11,0,0,0,0,11.13Z" transform="translate(0 -3.3)"/><path class="cls-7" d="M1.61,9.86c2.67.1,6,1.93,8.48,1.57,2.55,0,4.17-2.15,6-1.37C18.86,10,21,13,25,14.12V14c-4-1.12-6.12-4.07-8.86-4-1.89-.8-3.51,1.44-6.09,1.4-2.46.36-5.88-1.56-8.56-1.77A3.89,3.89,0,0,0,0,11.31v.5A4.21,4.21,0,0,1,1.61,9.86Z" transform="translate(0 -3.3)"/><path class="cls-7" d="M1.85,9.91c6.46,2.94,11.47.45,14.54.1,2.71.19,4.94,3.08,8.61,4.13V14c-3.65-1-5.87-3.91-8.58-4.1-3.1.33-8.17,3-14.69-.27A3.6,3.6,0,0,0,0,11.45V12A4,4,0,0,1,1.85,9.91Z" transform="translate(0 -3.3)"/><path class="cls-7" d="M25,13.83c-2.53-1.11-4.75-2.61-6.93-3.42,2.07.91,4.08,2.92,6.93,3.75Z" transform="translate(0 -3.3)"/><path class="cls-7" d="M11.29,11.14c1.81-.59,3.29-1.35,4.71-1.26A6.63,6.63,0,0,0,11.29,11.14Z" transform="translate(0 -3.3)"/><path class="cls-7" d="M2.68,10c3.83,1.74,6.69,2,8.61,1.16C9.1,12.26,5.75,10.79,2.68,10Z" transform="translate(0 -3.3)"/><path class="cls-7" d="M0,12.3c.69-1.38,1.47-2.07,2.36-2.24a2.37,2.37,0,0,1,.53,0l-.65-.29a3.3,3.3,0,0,0-2.24,2Z" transform="translate(0 -3.3)"/><path class="cls-7" d="M25,13.88c-2.58-1.12-4.88-2.83-7.17-3.66,2.18.84,4.14,3,7.17,3.94Z" transform="translate(0 -3.3)"/><path class="cls-7" d="M11.84,10.94c1.83-.7,3.35-1.4,4.79-1a4.5,4.5,0,0,1,1,.24A5.9,5.9,0,0,0,11.84,10.94Z" transform="translate(0 -3.3)"/><path class="cls-7" d="M2.89,10.1c4.19,2,7,1.81,9,.84C9.66,12.21,6.23,11.12,2.89,10.1Z" transform="translate(0 -3.3)"/><path class="cls-7" d="M2.61,10.15c6.77,3.25,11-.65,14-.33,2.76.34,4.8,3.22,8.36,4.35v-.06c-3.56-1-5.55-4.28-8.46-4.4-3-.35-6.59,3.79-14,.2C1.55,10,.73,10.6,0,12v.51C.76,11,1.62,10.26,2.61,10.15Z" transform="translate(0 -3.3)"/><path class="cls-7" d="M2.88,10.25c7.52,3.3,10.81-1.07,13.8-.51,2.9.21,4.81,3.46,8.32,4.47V14.1c-3.48-1-5.4-4.25-8.29-4.46-3-.61-6.33,4-14,.38-1,0-2,.61-2.75,2.08v.52C.82,11,1.77,10.29,2.88,10.25Z" transform="translate(0 -3.3)"/><path class="cls-7" d="M3.14,10.36C10.7,13.59,13.78,9,16.76,9.66c2.93.25,4.77,3.53,8.24,4.54v-.12c-3.44-1-5.29-4.26-8.21-4.52-3-.74-6.1,4.09-13.77.58-1.18-.06-2.17.51-3,2.11v.52C.88,11,1.91,10.33,3.14,10.36Z" transform="translate(0 -3.3)"/><path class="cls-7" d="M3.41,10.47C11,13.6,13.89,8.75,16.87,9.59c2.95.3,4.71,3.61,8.13,4.6v-.13c-3.39-1-5.16-4.26-8.1-4.57-3-.89-5.9,4.18-13.61.77C2,10.13.92,10.68,0,12.4v.53C1,11,2.06,10.38,3.41,10.47Z" transform="translate(0 -3.3)"/><path class="cls-7" d="M3.69,10.6C11.33,13.58,14,8.54,17,9.52c3,.37,4.64,3.66,8,4.64h0v-.12c-3.32-1-5-4.25-8-4.63-3-1-5.72,4.23-13.48,1C2.14,10.19,1,10.71,0,12.56v.52C1,11,2.21,10.44,3.69,10.6Z" transform="translate(0 -3.3)"/><path class="cls-7" d="M4,10.72c7.69,2.81,10.21-2.4,13.21-1.26,2.91.43,4.51,3.59,7.66,4.62l.17.05V14h0c-3-1.14-4.94-4-7.77-4.63-3-1.17-6.29,4.27-13.38,1.13-1.55-.27-2.8.2-3.84,2.17v.52C1.07,11,2.36,10.49,4,10.72Z" transform="translate(0 -3.3)"/><path class="cls-7" d="M4.24,10.85c7.72,2.6,10.1-2.74,13.1-1.46,2.89.52,4.41,3.57,7.39,4.61l.27.09V14l-.1,0c-2.86-1.15-4.7-3.89-7.49-4.6-3-1.36-6.15,4.28-13.29,1.31-1.67-.32-3,.08-4.12,2.18v.53C1.13,11.06,2.51,10.56,4.24,10.85Z" transform="translate(0 -3.3)"/><path class="cls-7" d="M0,13.51C1.19,11.07,2.66,10.64,4.52,11c7.75,2.37,10-3.06,13-1.63a5.68,5.68,0,0,1,1.38.51,7.28,7.28,0,0,0-1.31-.56c-3.07-1.54-6,4.26-13.21,1.5-1.81-.38-3.23,0-4.4,2.19Z" transform="translate(0 -3.3)"/><path class="cls-7" d="M24.69,13.93l.31.13v-.13l-.14,0A29.16,29.16,0,0,1,20,10.57C21.51,11.69,22.81,13.24,24.69,13.93Z" transform="translate(0 -3.3)"/><path class="cls-7" d="M4.8,11.09c7,2.31,10-3.39,13-1.75,2.68.85,4.39,3.33,6.89,4.53.1.05.21.08.31.12v-.12l-.14,0c-2.56-1.15-4.3-3.68-7-4.56-3.06-1.71-6,4.2-13.14,1.66-1.94-.43-3.46-.15-4.69,2.19v.52C1.25,11.07,2.81,10.72,4.8,11.09Z" transform="translate(0 -3.3)"/><path class="cls-7" d="M5.09,11.22c7,2,9.91-3.72,13-1.91,2.65.94,4.31,3.32,6.68,4.5.09,0,.19.08.28.12V13.8l-.1,0c-2.43-1.13-4.12-3.56-6.83-4.53-3.1-1.89-6,4.1-13.1,1.82-2.07-.46-3.68-.27-5,2.2v.51C1.31,11.07,3,10.8,5.09,11.22Z" transform="translate(0 -3.3)"/><path class="cls-7" d="M5.38,11.34c7.05,1.77,9.83-4,12.91-2.05,2.63,1,4.25,3.31,6.5,4.47l.21.11v-.15h0c-2.44-.9-3.79-3.57-6.64-4.51-3.19-2-5.16,3.67-13.07,2-2.21-.49-3.91-.41-5.26,2.18v.51C1.37,11.06,3.12,10.9,5.38,11.34Z" transform="translate(0 -3.3)"/><path class="cls-7" d="M5.66,11.45c7.05,1.47,9.78-4.32,12.89-2.17,2.62,1.11,4.2,3.29,6.34,4.43a1.05,1.05,0,0,0,.11.07v-.15c-2.29-.91-3.6-3.42-6.41-4.45-3.22-2.11-5.13,3.46-13,2.12-2.34-.51-4.14-.54-5.55,2.17V14C1.43,11.06,3.27,11,5.66,11.45Z" transform="translate(0 -3.3)"/><path class="cls-7" d="M6,11.56C13,12.71,15.68,7,18.82,9.28c2.61,1.2,4.16,3.26,6.18,4.38v-.14c-2.1-.93-3.38-3.24-6.14-4.34-3.24-2.24-5.13,3.19-13,2.23-2.48-.5-4.37-.64-5.84,2.19v.54C1.49,11.05,3.42,11.11,6,11.56Z" transform="translate(0 -3.3)"/><path class="cls-7" d="M6.24,11.66c7.19.73,9.89-5,13.13-2.25,2.38,1.29,3.85,3,5.63,4.12v-.17c-1.74-1-3.23-2.71-5.59-4-3.33-2.84-5.92,3-13.28,2.18-2.61-.5-4.6-.75-6.13,2.2v.55C1.54,11.05,3.57,11.22,6.24,11.66Z" transform="translate(0 -3.3)"/><path class="cls-7" d="M6.53,11.75c7.18.34,9.9-5.18,13.17-2.28,2.28,1.31,3.7,2.85,5.3,3.9V13.2c-1.57-1-3-2.48-5.25-3.8-3.37-3-6,2.67-13.33,2.22-2.75-.47-4.84-.85-6.42,2.24v.55C1.6,11,3.73,11.34,6.53,11.75Z" transform="translate(0 -3.3)"/><path class="cls-7" d="M6.81,11.83C14,11.76,16.74,6.5,20,9.53c2.17,1.31,3.53,2.65,5,3.66V13c-1.4-.95-2.78-2.24-4.9-3.55C16.69,6.32,14,11.74,6.71,11.72,3.83,11.28,1.64,10.77,0,14v.54C1.65,11,3.88,11.46,6.81,11.83Z" transform="translate(0 -3.3)"/><path class="cls-7" d="M7.1,11.91c7.13-.48,10-5.46,13.3-2.31,2,1.28,3.33,2.44,4.6,3.37v-.18c-1.24-.88-2.56-2-4.55-3.25C17,6.27,14.29,11.39,7,11.8c-3-.38-5.3-1.05-7,2.31v.55C1.71,11,4,11.6,7.1,11.91Z" transform="translate(0 -3.3)"/><path class="cls-7" d="M7.39,12c7.08-.92,10-5.54,13.37-2.29,1.88,1.21,3.12,2.19,4.24,3v-.18c-1.1-.78-2.35-1.71-4.19-2.91C17.35,6.26,14.54,11,7.28,11.87,4.15,11.56,1.76,10.74,0,14.23v.54C1.77,11,4.2,11.73,7.39,12Z" transform="translate(0 -3.3)"/><path class="cls-7" d="M7.67,12c7-1.35,10.06-5.57,13.46-2.26C22.84,10.9,24,11.72,25,12.46v-.18c-1-.67-2.15-1.46-3.81-2.55-3.5-3.44-6.42.9-13.62,2.2C4.31,11.71,1.81,10.71,0,14.34v.54C1.82,11,4.36,11.88,7.67,12Z" transform="translate(0 -3.3)"/><path class="cls-7" d="M8,12.09c7-1.79,10.13-5.55,13.56-2.2,1.52,1,2.61,1.67,3.49,2.29V12c-.88-.57-2-1.23-3.42-2.18C18,6.37,15,10.24,7.85,12c-3.38-.13-6-1.3-7.85,2.47V15C1.87,10.94,4.52,12,8,12.09Z" transform="translate(0 -3.3)"/><path class="cls-7" d="M8.23,12.13c6.94-2.22,10.2-5.5,13.68-2.13,1.31.84,2.3,1.41,3.09,1.9v-.14c-.79-.46-1.77-1-3-1.8C18.4,6.47,15.23,9.83,8.13,12,4.64,12,1.92,10.68,0,14.59v.56C1.93,10.92,4.68,12.18,8.23,12.13Z" transform="translate(0 -3.3)"/><path class="cls-7" d="M8.51,12.16c6.88-2.66,10.29-5.39,13.81-2,1.1.67,2,1.13,2.68,1.52v-.12c-.7-.36-1.55-.8-2.6-1.44-3.63-3.46-6.94-.67-14,2C4.8,12.18,2,10.66,0,14.71v.53C2,10.87,4.85,12.34,8.51,12.16Z" transform="translate(0 -3.3)"/><path class="cls-7" d="M8.78,12.18c6.83-3.08,10.39-5.23,14-1.94.89.51,1.63.87,2.25,1.17V11.3c-.61-.28-1.32-.61-2.17-1.1C19.14,6.8,15.68,9,8.69,12.09,5,12.35,2,10.62,0,14.81v.54C2,10.84,5,12.51,8.78,12.18Z" transform="translate(0 -3.3)"/><path class="cls-7" d="M9.05,12.19c6.78-3.5,10.5-5,14.14-1.84.69.37,1.29.63,1.81.85v-.09a17.28,17.28,0,0,1-1.72-.79C19.52,7,15.9,8.58,9,12.11c-3.82.42-6.88-1.52-9,2.8v.54C2.09,10.8,5.19,12.68,9.05,12.19Z" transform="translate(0 -3.3)"/><path class="cls-7" d="M9.32,12.19c6.73-3.91,10.6-4.76,14.34-1.73A11.42,11.42,0,0,0,25,11v-.08a10.66,10.66,0,0,1-1.25-.51c-3.84-3.12-7.63-2.28-14.52,1.68C5.31,12.7,2.14,10.55,0,15v.55C2.14,10.76,5.36,12.85,9.32,12.19Z" transform="translate(0 -3.3)"/><path class="cls-7" d="M9.58,12.18c6.7-4.31,10.73-4.45,14.56-1.62.31.13.59.22.86.31v-.08c-.24-.08-.49-.15-.75-.26-4-2.9-7.91-2.8-14.75,1.58-4,.77-7.31-1.58-9.5,3v.55C2.19,10.73,5.53,13,9.58,12.18Z" transform="translate(0 -3.3)"/><path class="cls-7" d="M9.85,12.16c6.65-4.69,10.84-4.08,14.81-1.52l.34.1v-.07l-.23-.06c-4.09-2.61-8.2-3.3-15,1.48-4.1,1-7.52-1.6-9.76,3.16v.54C2.24,10.68,5.71,13.21,9.85,12.16Z" transform="translate(0 -3.3)"/><path class="cls-7" d="M10.11,12.13c6.51-5,10.83-3.69,14.89-1.54v-.1C20.85,8.35,16.63,7,10,12.06c-4.19,1.19-7.73-1.61-10,3.28v.56C2.29,10.64,5.88,13.39,10.11,12.13Z" transform="translate(0 -3.3)"/><path class="cls-7" d="M10.36,12.1C16.56,7,20.92,8.69,25,10.38v-.09C20.84,8.6,16.57,6.87,10.28,12,6,13.44,2.35,10.41,0,15.45V16C2.34,10.59,6.06,13.58,10.36,12.1Z" transform="translate(0 -3.3)"/><path class="cls-7" d="M10.61,12.05C16.54,6.92,20.88,8.83,25,10.26V10.2C20.79,8.69,16.48,6.87,10.53,12,6.19,13.64,2.4,10.36,0,15.55v.56C2.39,10.53,6.23,13.76,10.61,12.05Z" transform="translate(0 -3.3)"/><path class="cls-7" d="M10.86,12c5.7-5,9.93-3.2,14.14-1.8v-.07c-4.29-1.47-8.5-3.22-14.22,1.8C6.37,13.83,2.45,10.32,0,15.66v.57C2.43,10.49,6.41,14,10.86,12Z" transform="translate(0 -3.3)"/><path class="cls-7" d="M11.11,11.94C16.57,7.05,20.7,8.77,25,10.15v-.07C20.63,8.63,16.51,7,11,11.89,6.55,14,2.49,10.27,0,15.79v.58C2.48,10.44,6.58,14.14,11.11,11.94Z" transform="translate(0 -3.3)"/></g></g></g></g></svg>